<svg width="33" height="32" viewBox="0 0 33 32" fill="none" xmlns="http://www.w3.org/2000/svg">
<g clip-path="url(#clip0_80_223)">
<rect x="0.282043" width="32" height="32" rx="5.56522" fill="#4DAAA0"/>
<path d="M-20.5875 12.9853C-16.4451 11.5338 -2.69695 3.18723 -3.46664 -18.5863C-4.23634 -40.3599 -1.64931 -27.6587 -0.259591 -18.5863C-2.0502 -0.804594 -7.68392 33.0896 -15.894 26.4124C-24.104 19.7351 -19.3148 34.7589 -15.894 43.1054C-6.51334 35.7266 11.467 8.12257 9.79931 -18.5863L13.9685 -21.4895C14.3159 3.91301 1.92121 61.7581 -9.23932 60.8872L4.31048 56.5324C6.50196 43.7102 11.6546 18.0658 14.7334 18.0658C17.8122 18.0658 22.7879 -16.4558 25.4337 -26.6168C24.9526 -17.3026 26.3269 16.6143 31.3299 20.969C36.3329 25.3237 41.9666 46.4924 44.1581 56.5324C41.1114 29.9528 33.2589 -30.1209 28.6407 -21.4895L37.5837 -8.06245C40.1226 -6.00606 45.2325 2.09854 45.3608 18.0658C45.489 34.0331 49.2092 50.3633 51.0533 56.5324C51.5878 29.5574 51.3259 -23.812 46.0022 -21.4895C40.6785 -19.167 47.6859 -14.4736 51.855 -12.4172C53.5922 0.767938 56.8901 32.3638 56.1846 53.2664C55.479 74.169 41.2985 64.1532 34.2964 56.5324C32.1584 40.3232 27.2409 8.92094 24.6753 12.9853C21.4682 18.0658 20.1052 42.7425 11.7669 56.5324" stroke="#348C82" stroke-width="0.347826"/>
<path d="M16.2427 17.2033V14.5346L20.1762 12.2583L16.2427 9.98207L10.9718 12.9648V21.9128L8.769 20.6569V11.5519L16.2427 7.23486L22.615 10.924V13.6712L16.2427 17.2033Z" fill="white"/>
<path d="M14.8266 12.4153L12.3878 13.7496V22.7762L16.2427 24.974L23.7951 20.5784V16.4184L22.2217 15.398L19.9402 16.8108L21.3563 17.5957V19.1656L16.2427 22.2267L14.8266 21.3633V12.4153Z" fill="white"/>
</g>
<defs>
<clipPath id="clip0_80_223">
<rect x="0.282043" width="32" height="32" rx="5.56522" fill="white"/>
</clipPath>
</defs>
</svg>
