<svg width="110" height="41" viewBox="0 0 110 41" fill="none" xmlns="http://www.w3.org/2000/svg">
<g filter="url(#filter0_d_84_1814)">
<rect x="4.28204" y="3" width="101.258" height="31.6789" rx="8.17454" fill="white" shape-rendering="crispEdges"/>
<path d="M25.9104 27.5263C26.3192 27.7988 26.6484 29.6835 26.762 30.5918H22.3341C22.3909 29.6835 22.6066 27.8669 23.0153 27.8669C23.424 27.8669 23.2991 23.6661 23.1856 21.5657C22.6406 21.5657 20.1202 18.8409 18.928 17.4784C18.2468 14.2427 19.9196 7.00831 20.8014 7.26026C21.9935 7.60089 21.8799 11.3475 21.6529 14.5833L22.5044 14.9239L23.3559 14.5833C23.1288 12.6532 23.0494 8.48644 24.548 7.26026C26.0467 6.03409 25.8537 11.6314 25.5698 14.5833L26.5917 14.9239L27.6135 14.5833C27.4432 12.6532 27.341 8.48644 28.2947 7.26026C29.4868 5.72754 30.3383 16.4566 30.168 17.4784C30.0318 18.2959 27.1593 20.5439 25.7401 21.5657C25.6266 23.439 25.5017 27.2538 25.9104 27.5263Z" fill="#007B2B"/>
<path d="M29.9978 29.3999C28.9078 29.5361 28.8624 25.0287 28.8056 22.758C28.7812 22.0768 33.9147 18.3302 35.2771 18.1599C36.3031 18.0316 36.0012 19.8048 35.6781 20.8656C35.6402 20.9899 35.5646 21.0978 35.4641 21.1802C34.2382 22.1856 32.1208 24.0693 32.382 24.4611C32.641 24.8495 35.6895 22.8074 37.4045 21.5805C37.5683 21.4633 37.6707 21.2803 37.677 21.079C37.7062 20.1498 37.6333 18.4162 37.1505 16.9677C36.7431 15.7457 37.4522 14.5109 38.1682 13.7045C38.4776 13.3561 39.0129 13.5048 39.1549 13.9485C39.8102 15.9961 40.7268 19.4554 40.7268 21.9065C40.7268 25.4829 31.3602 29.2295 29.9978 29.3999Z" fill="#F9C205"/>
<path d="M19.0983 29.5703C20.1883 29.7065 20.2337 25.1992 20.2905 22.9285C20.3149 22.2472 15.1814 18.5006 13.819 18.3303C12.793 18.202 13.0949 19.9752 13.418 21.036C13.4559 21.1604 13.5315 21.2682 13.632 21.3506C14.8579 22.356 16.9753 24.2397 16.7141 24.6315C16.4551 25.0199 13.4066 22.9778 11.6916 21.7509C11.5278 21.6337 11.4254 21.4507 11.4191 21.2494C11.3899 20.3202 11.4628 18.5866 11.9456 17.1382C12.353 15.9161 11.6439 14.6814 10.9279 13.8749C10.6185 13.5265 10.0832 13.6752 9.94119 14.1189C9.28587 16.1665 8.36927 19.6258 8.36927 22.0769C8.36927 25.6533 17.7359 29.4 19.0983 29.5703Z" fill="#F9C205"/>
<path d="M47.3755 14.4769C47.4772 14.506 47.608 14.5278 47.7679 14.5423C47.9277 14.5496 48.0803 14.5532 48.2256 14.5532C48.5163 14.5532 48.7561 14.4951 48.945 14.3788C49.1412 14.2553 49.2393 14.0664 49.2393 13.8121C49.2393 13.5723 49.1594 13.4015 48.9995 13.2998C48.8396 13.1981 48.5962 13.1472 48.2692 13.1472H47.3755V14.4769ZM47.3755 11.8175H48.1711C48.4836 11.8175 48.7088 11.7594 48.8469 11.6431C48.9922 11.5268 49.0649 11.3561 49.0649 11.1308C49.0649 10.9346 48.9813 10.7784 48.8142 10.6621C48.6543 10.5459 48.4109 10.4878 48.0839 10.4878C47.975 10.4878 47.8478 10.4914 47.7025 10.4987C47.5644 10.5059 47.4554 10.5168 47.3755 10.5314V11.8175ZM48.0839 16.0137C47.9604 16.0137 47.8151 16.0101 47.648 16.0028C47.4808 15.9956 47.3065 15.981 47.1248 15.9592C46.9504 15.9374 46.776 15.9084 46.6016 15.8721C46.4272 15.843 46.2674 15.7994 46.1221 15.7413C45.7224 15.5887 45.5226 15.3235 45.5226 14.9456V9.85559C45.5226 9.703 45.5626 9.58674 45.6425 9.50681C45.7297 9.41962 45.8459 9.35059 45.9913 9.29973C46.2383 9.21253 46.5471 9.15077 46.9177 9.11444C47.2883 9.07084 47.6698 9.04904 48.0621 9.04904C48.9922 9.04904 49.708 9.20526 50.2093 9.51771C50.7107 9.83016 50.9614 10.3134 50.9614 10.9673C50.9614 11.2943 50.8669 11.5777 50.678 11.8175C50.4891 12.05 50.2348 12.2208 49.915 12.3298C50.2784 12.4315 50.5799 12.6168 50.8197 12.8856C51.0667 13.1545 51.1903 13.4924 51.1903 13.8993C51.1903 14.6186 50.9214 15.1527 50.3837 15.5015C49.8533 15.843 49.0867 16.0137 48.0839 16.0137ZM54.3962 14.6622C54.5197 14.6622 54.6542 14.6513 54.7995 14.6295C54.9521 14.6005 55.0647 14.5641 55.1374 14.5205V13.6486L54.3526 13.714C54.1492 13.7285 53.982 13.7721 53.8513 13.8448C53.7205 13.9174 53.6551 14.0264 53.6551 14.1717C53.6551 14.3171 53.7096 14.437 53.8186 14.5314C53.9348 14.6186 54.1274 14.6622 54.3962 14.6622ZM54.309 10.3788C54.7014 10.3788 55.0575 10.4187 55.3772 10.4987C55.7041 10.5786 55.9803 10.7021 56.2055 10.8692C56.438 11.0291 56.6161 11.2362 56.7396 11.4905C56.8631 11.7376 56.9249 12.0318 56.9249 12.3734V14.8148C56.9249 15.0037 56.8704 15.16 56.7614 15.2835C56.6597 15.3997 56.5361 15.5015 56.3908 15.5887C55.9185 15.8721 55.2536 16.0137 54.3962 16.0137C54.0111 16.0137 53.6623 15.9774 53.3499 15.9048C53.0447 15.8321 52.7795 15.7231 52.5542 15.5778C52.3362 15.4324 52.1655 15.2472 52.042 15.0219C51.9257 14.7966 51.8676 14.5351 51.8676 14.2371C51.8676 13.7358 52.0165 13.3507 52.3144 13.0818C52.6124 12.813 53.0738 12.6458 53.6987 12.5804L55.1265 12.4278V12.3516C55.1265 12.1408 55.032 11.9919 54.8431 11.9047C54.6614 11.8102 54.3962 11.763 54.0474 11.763C53.7713 11.763 53.5025 11.7921 53.2409 11.8502C52.9793 11.9083 52.7431 11.981 52.5324 12.0682C52.438 12.0028 52.358 11.9047 52.2926 11.7739C52.2272 11.6358 52.1945 11.4941 52.1945 11.3488C52.1945 11.1599 52.2381 11.0109 52.3253 10.9019C52.4198 10.7857 52.5615 10.6876 52.7504 10.6077C52.9611 10.5277 53.2082 10.4696 53.4916 10.4333C53.7822 10.3969 54.0547 10.3788 54.309 10.3788ZM63.235 14.8802C63.1987 15.2217 63.097 15.4833 62.9298 15.665C62.77 15.8466 62.5338 15.9374 62.2214 15.9374C61.9889 15.9374 61.7818 15.883 61.6001 15.774C61.4185 15.6577 61.2223 15.4651 61.0116 15.1963L59.9325 13.8448V15.8285C59.8526 15.843 59.7327 15.8612 59.5728 15.883C59.4202 15.912 59.264 15.9266 59.1042 15.9266C58.9443 15.9266 58.799 15.9157 58.6682 15.8939C58.5447 15.8721 58.4393 15.8285 58.3521 15.7631C58.2649 15.6977 58.1959 15.6105 58.145 15.5015C58.1014 15.3852 58.0796 15.2363 58.0796 15.0546V8.74386C58.1595 8.72206 58.2758 8.70026 58.4284 8.67846C58.5883 8.6494 58.7481 8.63486 58.908 8.63486C59.0678 8.63486 59.2095 8.64576 59.333 8.66756C59.4638 8.68936 59.5728 8.73296 59.66 8.79835C59.7472 8.86375 59.8126 8.95458 59.8562 9.07084C59.9071 9.17983 59.9325 9.32516 59.9325 9.50681V12.3843L61.8072 10.466C62.1851 10.466 62.4866 10.5495 62.7119 10.7166C62.9444 10.8838 63.0606 11.0945 63.0606 11.3488C63.0606 11.4578 63.0425 11.5595 63.0061 11.654C62.9698 11.7412 62.9117 11.832 62.8317 11.9265C62.7591 12.0209 62.661 12.1227 62.5375 12.2317C62.4212 12.3334 62.2831 12.4533 62.1233 12.5913L61.4911 13.1363L63.235 14.8802ZM64.0291 10.6186C64.1017 10.5968 64.2144 10.575 64.3669 10.5532C64.5268 10.5314 64.6903 10.5205 64.8574 10.5205C65.0173 10.5205 65.159 10.5314 65.2825 10.5532C65.4133 10.575 65.5223 10.6186 65.6095 10.6839C65.6967 10.7493 65.7621 10.8402 65.8057 10.9564C65.8565 11.0654 65.882 11.2108 65.882 11.3924V13.7358C65.882 14.0337 65.9546 14.248 66.0999 14.3788C66.2453 14.5024 66.456 14.5641 66.7321 14.5641C66.8992 14.5641 67.0337 14.5496 67.1354 14.5205C67.2444 14.4915 67.3279 14.4624 67.3861 14.4333V10.6186C67.4587 10.5968 67.5714 10.575 67.724 10.5532C67.8838 10.5314 68.0473 10.5205 68.2144 10.5205C68.3743 10.5205 68.516 10.5314 68.6395 10.5532C68.7703 10.575 68.8793 10.6186 68.9665 10.6839C69.0537 10.7493 69.1191 10.8402 69.1627 10.9564C69.2135 11.0654 69.239 11.2108 69.239 11.3924V14.7058C69.239 15.0691 69.0864 15.3416 68.7812 15.5233C68.5269 15.6831 68.2217 15.803 67.8656 15.883C67.5169 15.9701 67.1354 16.0137 66.7212 16.0137C66.3288 16.0137 65.9655 15.9701 65.6313 15.883C65.3043 15.7958 65.0209 15.6613 64.7811 15.4797C64.5413 15.298 64.356 15.0655 64.2253 14.7821C64.0945 14.4915 64.0291 14.1427 64.0291 13.7358V10.6186ZM72.2584 15.8285C72.1785 15.843 72.0586 15.8612 71.8988 15.883C71.7462 15.912 71.5899 15.9266 71.4301 15.9266C71.2702 15.9266 71.1249 15.9157 70.9941 15.8939C70.8706 15.8721 70.7652 15.8285 70.678 15.7631C70.5908 15.6977 70.5218 15.6105 70.4709 15.5015C70.4273 15.3852 70.4055 15.2363 70.4055 15.0546V8.73296C70.4855 8.71843 70.6017 8.70026 70.7543 8.67846C70.9142 8.6494 71.074 8.63486 71.2339 8.63486C71.3938 8.63486 71.5354 8.64576 71.659 8.66756C71.7898 8.68936 71.8988 8.73296 71.986 8.79835C72.0731 8.86375 72.1385 8.95458 72.1821 9.07084C72.233 9.17983 72.2584 9.32516 72.2584 9.50681V15.8285ZM75.4462 10.7602C75.3953 10.6803 75.3481 10.5713 75.3045 10.4333C75.2609 10.2952 75.2391 10.1499 75.2391 9.99729C75.2391 9.7139 75.3008 9.51045 75.4244 9.38692C75.5552 9.26339 75.7223 9.20163 75.9257 9.20163H80.6779C80.7287 9.28156 80.776 9.39055 80.8196 9.52861C80.8632 9.66667 80.885 9.812 80.885 9.96459C80.885 10.248 80.8196 10.4514 80.6888 10.575C80.5652 10.6985 80.4018 10.7602 80.1983 10.7602H78.9885V15.7958C78.9085 15.8176 78.7814 15.8394 78.607 15.8612C78.4399 15.883 78.2727 15.8939 78.1056 15.8939C77.9385 15.8939 77.7895 15.8793 77.6587 15.8503C77.5352 15.8285 77.4299 15.7849 77.3427 15.7195C77.2555 15.6541 77.1901 15.5632 77.1465 15.447C77.1029 15.3307 77.0811 15.1781 77.0811 14.9892V10.7602H75.4462ZM83.6032 14.6622C83.7267 14.6622 83.8611 14.6513 84.0064 14.6295C84.159 14.6005 84.2717 14.5641 84.3443 14.5205V13.6486L83.5596 13.714C83.3561 13.7285 83.189 13.7721 83.0582 13.8448C82.9274 13.9174 82.862 14.0264 82.862 14.1717C82.862 14.3171 82.9165 14.437 83.0255 14.5314C83.1418 14.6186 83.3343 14.6622 83.6032 14.6622ZM83.516 10.3788C83.9083 10.3788 84.2644 10.4187 84.5841 10.4987C84.9111 10.5786 85.1872 10.7021 85.4125 10.8692C85.645 11.0291 85.823 11.2362 85.9465 11.4905C86.0701 11.7376 86.1318 12.0318 86.1318 12.3734V14.8148C86.1318 15.0037 86.0773 15.16 85.9683 15.2835C85.8666 15.3997 85.7431 15.5015 85.5977 15.5887C85.1254 15.8721 84.4606 16.0137 83.6032 16.0137C83.218 16.0137 82.8693 15.9774 82.5568 15.9048C82.2516 15.8321 81.9864 15.7231 81.7612 15.5778C81.5432 15.4324 81.3724 15.2472 81.2489 15.0219C81.1326 14.7966 81.0745 14.5351 81.0745 14.2371C81.0745 13.7358 81.2235 13.3507 81.5214 13.0818C81.8193 12.813 82.2807 12.6458 82.9056 12.5804L84.3334 12.4278V12.3516C84.3334 12.1408 84.239 11.9919 84.05 11.9047C83.8684 11.8102 83.6032 11.763 83.2544 11.763C82.9783 11.763 82.7094 11.7921 82.4478 11.8502C82.1862 11.9083 81.9501 11.981 81.7394 12.0682C81.6449 12.0028 81.565 11.9047 81.4996 11.7739C81.4342 11.6358 81.4015 11.4941 81.4015 11.3488C81.4015 11.1599 81.4451 11.0109 81.5323 10.9019C81.6267 10.7857 81.7684 10.6876 81.9574 10.6077C82.1681 10.5277 82.4151 10.4696 82.6985 10.4333C82.9892 10.3969 83.2616 10.3788 83.516 10.3788ZM91.7335 14.2589C91.7335 14.8112 91.5264 15.2435 91.1122 15.556C90.6981 15.8684 90.0877 16.0246 89.2811 16.0246C88.976 16.0246 88.6926 16.0028 88.431 15.9592C88.1694 15.9157 87.9442 15.8503 87.7552 15.7631C87.5736 15.6686 87.4282 15.5523 87.3193 15.4143C87.2175 15.2762 87.1667 15.1127 87.1667 14.9238C87.1667 14.7494 87.203 14.6041 87.2757 14.4878C87.3483 14.3643 87.4355 14.2626 87.5372 14.1826C87.748 14.2989 87.9878 14.4043 88.2566 14.4987C88.5327 14.5859 88.8488 14.6295 89.2048 14.6295C89.4301 14.6295 89.6009 14.5968 89.7171 14.5314C89.8406 14.466 89.9024 14.3788 89.9024 14.2698C89.9024 14.1681 89.8588 14.0882 89.7716 14.0301C89.6844 13.9719 89.5391 13.9247 89.3356 13.8884L89.0087 13.823C88.3765 13.6994 87.9042 13.5069 87.5917 13.2453C87.2866 12.9765 87.134 12.595 87.134 12.1009C87.134 11.832 87.1921 11.5886 87.3084 11.3706C87.4246 11.1526 87.5881 10.971 87.7988 10.8256C88.0095 10.6803 88.2602 10.5677 88.5509 10.4878C88.8488 10.4078 89.1758 10.3679 89.5318 10.3679C89.8007 10.3679 90.0514 10.3897 90.2839 10.4333C90.5237 10.4696 90.7308 10.5277 90.9052 10.6077C91.0795 10.6876 91.2176 10.7929 91.3193 10.9237C91.4211 11.0473 91.4719 11.1962 91.4719 11.3706C91.4719 11.5377 91.4392 11.6831 91.3738 11.8066C91.3157 11.9228 91.2394 12.0209 91.1449 12.1009C91.0868 12.0645 90.9996 12.0282 90.8834 11.9919C90.7671 11.9483 90.6399 11.9119 90.5019 11.8829C90.3638 11.8465 90.2221 11.8175 90.0768 11.7957C89.9387 11.7739 89.8116 11.763 89.6953 11.763C89.4555 11.763 89.2702 11.7921 89.1395 11.8502C89.0087 11.901 88.9433 11.9846 88.9433 12.1009C88.9433 12.1808 88.9796 12.2462 89.0523 12.2971C89.1249 12.3479 89.263 12.3952 89.4664 12.4387L89.8043 12.515C90.5019 12.6749 90.996 12.8965 91.2866 13.1799C91.5845 13.456 91.7335 13.8157 91.7335 14.2589ZM92.5857 9.07084C92.5857 8.79472 92.6765 8.5622 92.8582 8.37328C93.0471 8.18436 93.2942 8.08989 93.5993 8.08989C93.9045 8.08989 94.1479 8.18436 94.3296 8.37328C94.5185 8.5622 94.613 8.79472 94.613 9.07084C94.613 9.34696 94.5185 9.57948 94.3296 9.7684C94.1479 9.95732 93.9045 10.0518 93.5993 10.0518C93.2942 10.0518 93.0471 9.95732 92.8582 9.7684C92.6765 9.57948 92.5857 9.34696 92.5857 9.07084ZM94.5258 15.8285C94.4459 15.843 94.326 15.8612 94.1661 15.883C94.0135 15.912 93.8573 15.9266 93.6974 15.9266C93.5376 15.9266 93.3923 15.9157 93.2615 15.8939C93.1379 15.8721 93.0326 15.8285 92.9454 15.7631C92.8582 15.6977 92.7892 15.6105 92.7383 15.5015C92.6947 15.3852 92.6729 15.2363 92.6729 15.0546V10.6186C92.7528 10.604 92.8691 10.5859 93.0217 10.5641C93.1815 10.535 93.3414 10.5205 93.5012 10.5205C93.6611 10.5205 93.8028 10.5314 93.9263 10.5532C94.0571 10.575 94.1661 10.6186 94.2533 10.6839C94.3405 10.7493 94.4059 10.8402 94.4495 10.9564C94.5004 11.0654 94.5258 11.2108 94.5258 11.3924V15.8285ZM100.883 14.8802C100.846 15.2217 100.745 15.4833 100.577 15.665C100.418 15.8466 100.181 15.9374 99.869 15.9374C99.6364 15.9374 99.4293 15.883 99.2477 15.774C99.066 15.6577 98.8698 15.4651 98.6591 15.1963L97.5801 13.8448V15.8285C97.5002 15.843 97.3803 15.8612 97.2204 15.883C97.0678 15.912 96.9116 15.9266 96.7517 15.9266C96.5919 15.9266 96.4466 15.9157 96.3158 15.8939C96.1922 15.8721 96.0869 15.8285 95.9997 15.7631C95.9125 15.6977 95.8435 15.6105 95.7926 15.5015C95.749 15.3852 95.7272 15.2363 95.7272 15.0546V8.74386C95.8071 8.72206 95.9234 8.70026 96.076 8.67846C96.2358 8.6494 96.3957 8.63486 96.5555 8.63486C96.7154 8.63486 96.8571 8.64576 96.9806 8.66756C97.1114 8.68936 97.2204 8.73296 97.3076 8.79835C97.3948 8.86375 97.4602 8.95458 97.5038 9.07084C97.5547 9.17983 97.5801 9.32516 97.5801 9.50681V12.3843L99.4548 10.466C99.8326 10.466 100.134 10.5495 100.359 10.7166C100.592 10.8838 100.708 11.0945 100.708 11.3488C100.708 11.4578 100.69 11.5595 100.654 11.654C100.617 11.7412 100.559 11.832 100.479 11.9265C100.407 12.0209 100.309 12.1227 100.185 12.2317C100.069 12.3334 99.9307 12.4533 99.7709 12.5913L99.1387 13.1363L100.883 14.8802Z" fill="#124990"/>
<line x1="44.8141" y1="17.6691" x2="101.814" y2="17.6691" stroke="#F9C205" stroke-width="0.340606"/>
<path d="M45.2133 19.9216H46.0395C46.4041 19.9216 46.6782 19.9761 46.8618 20.0852C47.0454 20.1943 47.1372 20.3799 47.1372 20.642C47.1372 20.7551 47.1152 20.8569 47.0713 20.9474C47.0287 21.0365 46.9662 21.1104 46.8837 21.1689C46.8012 21.2275 46.6994 21.268 46.5784 21.2907V21.3106C46.7061 21.3306 46.8192 21.3672 46.9176 21.4204C47.0161 21.4736 47.0933 21.5481 47.1491 21.6439C47.205 21.7397 47.233 21.8614 47.233 22.0091C47.233 22.1887 47.1911 22.3404 47.1072 22.4642C47.0247 22.5879 46.9077 22.6817 46.756 22.7456C46.6043 22.8081 46.4247 22.8394 46.2171 22.8394H45.2133V19.9216ZM45.5526 21.1729H46.1114C46.3655 21.1729 46.5411 21.131 46.6382 21.0472C46.7367 20.9634 46.7859 20.841 46.7859 20.68C46.7859 20.5137 46.7274 20.3939 46.6103 20.3207C46.4945 20.2476 46.3096 20.211 46.0555 20.211H45.5526V21.1729ZM45.5526 21.4583V22.55H46.1593C46.4187 22.55 46.6023 22.4994 46.7101 22.3983C46.8179 22.2958 46.8717 22.1581 46.8717 21.9852C46.8717 21.8747 46.8471 21.7803 46.7979 21.7018C46.75 21.6233 46.6715 21.5634 46.5624 21.5222C46.4546 21.4796 46.3103 21.4583 46.1293 21.4583H45.5526ZM48.6479 20.6121C48.8342 20.6121 48.9939 20.6534 49.1269 20.7358C49.26 20.8183 49.3618 20.9341 49.4323 21.0831C49.5028 21.2308 49.538 21.4038 49.538 21.602V21.8076H48.0273C48.0313 22.0643 48.0951 22.2599 48.2189 22.3943C48.3426 22.5287 48.5169 22.5959 48.7417 22.5959C48.8801 22.5959 49.0025 22.5832 49.109 22.558C49.2154 22.5327 49.3258 22.4954 49.4402 22.4462V22.7376C49.3298 22.7868 49.2201 22.8227 49.111 22.8453C49.0032 22.868 48.8755 22.8793 48.7278 22.8793C48.5176 22.8793 48.3339 22.8367 48.1769 22.7515C48.0213 22.6651 47.9002 22.5387 47.8137 22.3724C47.7272 22.206 47.684 22.0025 47.684 21.7617C47.684 21.5262 47.7233 21.3226 47.8018 21.151C47.8816 20.978 47.9933 20.8449 48.137 20.7518C48.2821 20.6587 48.4524 20.6121 48.6479 20.6121ZM48.644 20.8835C48.467 20.8835 48.326 20.9414 48.2209 21.0572C48.1157 21.1729 48.0532 21.3346 48.0333 21.5421H49.1908C49.1895 21.4117 49.1688 21.2973 49.1289 21.1989C49.0903 21.0991 49.0311 21.0219 48.9513 20.9674C48.8715 20.9115 48.769 20.8835 48.644 20.8835ZM51.0947 20.6121C51.1386 20.6121 51.1845 20.6148 51.2324 20.6201C51.2803 20.6241 51.3229 20.6301 51.3601 20.6381L51.3182 20.9454C51.2823 20.9361 51.2424 20.9288 51.1985 20.9234C51.1546 20.9181 51.1133 20.9155 51.0748 20.9155C50.9869 20.9155 50.9038 20.9334 50.8253 20.9694C50.7481 21.0039 50.6803 21.0545 50.6217 21.121C50.5632 21.1862 50.5173 21.2654 50.484 21.3585C50.4508 21.4503 50.4341 21.5528 50.4341 21.6659V22.8394H50.1008V20.652H50.3763L50.4122 21.0552H50.4261C50.4714 20.974 50.5259 20.9002 50.5898 20.8336C50.6537 20.7658 50.7275 20.7119 50.8113 20.672C50.8965 20.6321 50.9909 20.6121 51.0947 20.6121ZM52.1046 19.734V20.5103C52.1046 20.5995 52.1019 20.686 52.0966 20.7698C52.0926 20.8536 52.0893 20.9188 52.0866 20.9654H52.1046C52.1644 20.8669 52.2509 20.7837 52.364 20.7159C52.4771 20.648 52.6215 20.6141 52.7971 20.6141C53.0712 20.6141 53.2894 20.7092 53.4517 20.8995C53.6153 21.0884 53.6972 21.3698 53.6972 21.7437C53.6972 21.9898 53.6599 22.1974 53.5854 22.3664C53.5109 22.5353 53.4058 22.6631 53.2701 22.7495C53.1344 22.836 52.974 22.8793 52.7891 22.8793C52.6161 22.8793 52.4738 22.8473 52.362 22.7835C52.2516 22.7183 52.1664 22.6391 52.1066 22.546H52.0806L52.0128 22.8394H51.7733V19.734H52.1046ZM52.7432 20.8915C52.5849 20.8915 52.4591 20.9228 52.366 20.9853C52.2729 21.0465 52.2057 21.1397 52.1644 21.2647C52.1245 21.3885 52.1046 21.5455 52.1046 21.7357V21.7537C52.1046 22.0291 52.1505 22.24 52.2423 22.3863C52.3341 22.5313 52.501 22.6039 52.7432 22.6039C52.9468 22.6039 53.0991 22.5294 53.2002 22.3803C53.3027 22.2313 53.3539 22.0184 53.3539 21.7417C53.3539 21.4596 53.3033 21.2474 53.2022 21.1051C53.1024 20.9627 52.9494 20.8915 52.7432 20.8915ZM55.0942 20.6161C55.3549 20.6161 55.5485 20.6746 55.6749 20.7917C55.8013 20.9088 55.8645 21.0957 55.8645 21.3525V22.8394H55.623L55.5592 22.516H55.5432C55.482 22.5959 55.4181 22.6631 55.3516 22.7176C55.2851 22.7708 55.2079 22.8114 55.1201 22.8394C55.0336 22.866 54.9272 22.8793 54.8008 22.8793C54.6677 22.8793 54.5493 22.856 54.4456 22.8094C54.3431 22.7629 54.2619 22.6923 54.2021 22.5979C54.1435 22.5034 54.1143 22.3837 54.1143 22.2386C54.1143 22.0204 54.2007 21.8528 54.3737 21.7357C54.5467 21.6186 54.8101 21.5548 55.164 21.5441L55.5412 21.5282V21.3944C55.5412 21.2055 55.5006 21.0731 55.4195 20.9973C55.3383 20.9215 55.2239 20.8835 55.0762 20.8835C54.9618 20.8835 54.8527 20.9002 54.7489 20.9334C54.6451 20.9667 54.5467 21.0059 54.4535 21.0512L54.3518 20.7997C54.4502 20.7492 54.5633 20.7059 54.691 20.67C54.8188 20.6341 54.9531 20.6161 55.0942 20.6161ZM55.5372 21.7617L55.2039 21.7756C54.9312 21.7863 54.7389 21.8308 54.6272 21.9093C54.5154 21.9878 54.4595 22.0989 54.4595 22.2426C54.4595 22.3677 54.4974 22.4602 54.5733 22.52C54.6491 22.5799 54.7496 22.6098 54.8746 22.6098C55.0689 22.6098 55.2279 22.556 55.3516 22.4482C55.4754 22.3404 55.5372 22.1788 55.5372 21.9632V21.7617ZM57.1578 23.8213C56.8704 23.8213 56.6489 23.7674 56.4932 23.6596C56.3375 23.5532 56.2597 23.4035 56.2597 23.2106C56.2597 23.0735 56.3029 22.9564 56.3894 22.8593C56.4772 22.7622 56.5983 22.6977 56.7526 22.6657C56.6954 22.6391 56.6462 22.5992 56.6049 22.546C56.565 22.4928 56.5451 22.4316 56.5451 22.3624C56.5451 22.2825 56.567 22.2127 56.6109 22.1528C56.6562 22.0916 56.7247 22.0331 56.8165 21.9772C56.7021 21.9306 56.6089 21.8521 56.5371 21.7417C56.4666 21.6299 56.4313 21.5002 56.4313 21.3525C56.4313 21.1955 56.4639 21.0618 56.5291 20.9514C56.5943 20.8396 56.6888 20.7545 56.8125 20.6959C56.9362 20.6374 57.0859 20.6081 57.2615 20.6081C57.3001 20.6081 57.3387 20.6101 57.3773 20.6141C57.4172 20.6168 57.4551 20.6214 57.4911 20.6281C57.527 20.6334 57.5582 20.6401 57.5849 20.648H58.3352V20.8616L57.9321 20.9115C57.972 20.9634 58.0053 21.0259 58.0319 21.0991C58.0585 21.1723 58.0718 21.2534 58.0718 21.3426C58.0718 21.5608 57.998 21.7344 57.8503 21.8634C57.7026 21.9912 57.4997 22.055 57.2416 22.055C57.1804 22.055 57.1178 22.0497 57.054 22.0391C56.9888 22.075 56.9389 22.1149 56.9043 22.1588C56.871 22.2027 56.8544 22.2533 56.8544 22.3105C56.8544 22.3531 56.8671 22.387 56.8923 22.4123C56.9189 22.4375 56.9569 22.4562 57.0061 22.4681C57.0553 22.4788 57.1145 22.4841 57.1837 22.4841H57.5689C57.807 22.4841 57.9893 22.534 58.1157 22.6338C58.2434 22.7336 58.3073 22.8793 58.3073 23.0709C58.3073 23.313 58.2089 23.4986 58.0119 23.6277C57.815 23.7567 57.5303 23.8213 57.1578 23.8213ZM57.1677 23.5618C57.3487 23.5618 57.4984 23.5432 57.6168 23.5059C57.7365 23.47 57.8257 23.4175 57.8842 23.3483C57.9441 23.2804 57.974 23.1993 57.974 23.1048C57.974 23.017 57.9541 22.9505 57.9141 22.9052C57.8742 22.8613 57.8157 22.832 57.7385 22.8174C57.6614 22.8014 57.5669 22.7935 57.4551 22.7935H57.0759C56.9775 22.7935 56.8917 22.8088 56.8185 22.8394C56.7453 22.87 56.6888 22.9152 56.6489 22.9751C56.6103 23.0349 56.591 23.1094 56.591 23.1986C56.591 23.317 56.6409 23.4068 56.7407 23.468C56.8404 23.5305 56.9828 23.5618 57.1677 23.5618ZM57.2536 21.8135C57.4119 21.8135 57.531 21.7736 57.6108 21.6938C57.6906 21.614 57.7305 21.4976 57.7305 21.3445C57.7305 21.1809 57.69 21.0585 57.6088 20.9773C57.5276 20.8948 57.4079 20.8536 57.2496 20.8536C57.0979 20.8536 56.9808 20.8962 56.8983 20.9813C56.8172 21.0651 56.7766 21.1882 56.7766 21.3505C56.7766 21.4996 56.8178 21.614 56.9003 21.6938C56.9828 21.7736 57.1006 21.8135 57.2536 21.8135ZM59.0976 20.652V22.8394H58.7663V20.652H59.0976ZM58.936 19.8338C58.9905 19.8338 59.0371 19.8517 59.0757 19.8877C59.1156 19.9223 59.1355 19.9768 59.1355 20.0513C59.1355 20.1245 59.1156 20.179 59.0757 20.215C59.0371 20.2509 58.9905 20.2688 58.936 20.2688C58.8788 20.2688 58.8309 20.2509 58.7923 20.215C58.755 20.179 58.7364 20.1245 58.7364 20.0513C58.7364 19.9768 58.755 19.9223 58.7923 19.8877C58.8309 19.8517 58.8788 19.8338 58.936 19.8338ZM63.0152 22.8394H62.6141L61.5624 21.4204L61.251 21.6998V22.8394H60.9117V19.9216H61.251V21.3765C61.3269 21.29 61.4047 21.2042 61.4845 21.119C61.5643 21.0325 61.6435 20.9454 61.722 20.8576L62.5742 19.9216H62.9713L61.8098 21.1869L63.0152 22.8394ZM65.1706 20.652V22.8394H64.8992L64.8513 22.532H64.8334C64.7881 22.6079 64.7296 22.6717 64.6577 22.7236C64.5859 22.7755 64.5047 22.8141 64.4143 22.8394C64.3251 22.866 64.23 22.8793 64.1289 22.8793C63.9559 22.8793 63.8109 22.8513 63.6938 22.7954C63.5767 22.7396 63.4882 22.6531 63.4284 22.536C63.3698 22.4189 63.3406 22.2686 63.3406 22.085V20.652H63.6758V22.061C63.6758 22.2433 63.7171 22.3797 63.7996 22.4701C63.8821 22.5593 64.0078 22.6039 64.1768 22.6039C64.3391 22.6039 64.4681 22.5733 64.5639 22.5121C64.6611 22.4509 64.7309 22.361 64.7735 22.2426C64.8161 22.1229 64.8374 21.9765 64.8374 21.8036V20.652H65.1706ZM68.2461 20.6121C68.4869 20.6121 68.6685 20.6753 68.7909 20.8017C68.9133 20.9268 68.9745 21.1283 68.9745 21.4064V22.8394H68.6472V21.4224C68.6472 21.2454 68.6086 21.113 68.5315 21.0252C68.4556 20.9361 68.3425 20.8915 68.1922 20.8915C67.9806 20.8915 67.827 20.9527 67.7312 21.0751C67.6354 21.1975 67.5875 21.3778 67.5875 21.616V22.8394H67.2582V21.4224C67.2582 21.304 67.2409 21.2055 67.2063 21.127C67.173 21.0485 67.1225 20.99 67.0546 20.9514C66.9881 20.9115 66.9036 20.8915 66.8012 20.8915C66.6561 20.8915 66.5397 20.9215 66.4519 20.9813C66.3641 21.0412 66.3002 21.1303 66.2603 21.2488C66.2217 21.3658 66.2024 21.5102 66.2024 21.6818V22.8394H65.8711V20.652H66.1386L66.1885 20.9614H66.2064C66.2503 20.8855 66.3056 20.8217 66.3721 20.7698C66.4386 20.7179 66.5131 20.6786 66.5956 20.652C66.6781 20.6254 66.7659 20.6121 66.859 20.6121C67.0253 20.6121 67.1644 20.6434 67.2761 20.7059C67.3892 20.7671 67.4711 20.8609 67.5216 20.9873H67.5396C67.6114 20.8609 67.7099 20.7671 67.835 20.7059C67.96 20.6434 68.0971 20.6121 68.2461 20.6121ZM70.6829 20.6121C70.9556 20.6121 71.1732 20.7059 71.3355 20.8935C71.4978 21.0811 71.579 21.3632 71.579 21.7397C71.579 21.9885 71.5417 22.1974 71.4672 22.3664C71.3927 22.5353 71.2876 22.6631 71.1519 22.7495C71.0175 22.836 70.8585 22.8793 70.6749 22.8793C70.5591 22.8793 70.4574 22.864 70.3695 22.8334C70.2817 22.8028 70.2066 22.7615 70.144 22.7096C70.0815 22.6577 70.0296 22.6012 69.9884 22.54H69.9644C69.9684 22.5919 69.9731 22.6544 69.9784 22.7276C69.985 22.8008 69.9884 22.8646 69.9884 22.9192V23.8173H69.6551V20.652H69.9285L69.9724 20.9753H69.9884C70.0309 20.9088 70.0828 20.8483 70.144 20.7937C70.2052 20.7378 70.2797 20.6939 70.3675 20.662C70.4567 20.6287 70.5618 20.6121 70.6829 20.6121ZM70.625 20.8915C70.4733 20.8915 70.3509 20.9208 70.2578 20.9793C70.166 21.0379 70.0988 21.1257 70.0562 21.2428C70.0136 21.3585 69.991 21.5042 69.9884 21.6798V21.7437C69.9884 21.9286 70.0083 22.085 70.0482 22.2127C70.0895 22.3404 70.1567 22.4375 70.2498 22.5041C70.3443 22.5706 70.4707 22.6039 70.629 22.6039C70.7647 22.6039 70.8778 22.5673 70.9683 22.4941C71.0587 22.4209 71.1259 22.3191 71.1698 22.1887C71.2151 22.057 71.2377 21.906 71.2377 21.7357C71.2377 21.4776 71.1871 21.2727 71.086 21.121C70.9862 20.968 70.8325 20.8915 70.625 20.8915ZM73.9639 20.652V22.8394H73.6924L73.6445 22.532H73.6266C73.5813 22.6079 73.5228 22.6717 73.451 22.7236C73.3791 22.7755 73.2979 22.8141 73.2075 22.8394C73.1183 22.866 73.0232 22.8793 72.9221 22.8793C72.7491 22.8793 72.6041 22.8513 72.487 22.7954C72.3699 22.7396 72.2815 22.6531 72.2216 22.536C72.163 22.4189 72.1338 22.2686 72.1338 22.085V20.652H72.4691V22.061C72.4691 22.2433 72.5103 22.3797 72.5928 22.4701C72.6753 22.5593 72.801 22.6039 72.97 22.6039C73.1323 22.6039 73.2614 22.5733 73.3572 22.5121C73.4543 22.4509 73.5241 22.361 73.5667 22.2426C73.6093 22.1229 73.6306 21.9765 73.6306 21.8036V20.652H73.9639ZM74.9977 22.8394H74.6644V19.734H74.9977V22.8394ZM76.5164 20.6161C76.7772 20.6161 76.9708 20.6746 77.0972 20.7917C77.2236 20.9088 77.2868 21.0957 77.2868 21.3525V22.8394H77.0453L76.9814 22.516H76.9654C76.9042 22.5959 76.8404 22.6631 76.7739 22.7176C76.7073 22.7708 76.6302 22.8114 76.5424 22.8394C76.4559 22.866 76.3494 22.8793 76.223 22.8793C76.09 22.8793 75.9716 22.856 75.8678 22.8094C75.7653 22.7629 75.6842 22.6923 75.6243 22.5979C75.5658 22.5034 75.5365 22.3837 75.5365 22.2386C75.5365 22.0204 75.623 21.8528 75.7959 21.7357C75.9689 21.6186 76.2323 21.5548 76.5863 21.5441L76.9635 21.5282V21.3944C76.9635 21.2055 76.9229 21.0731 76.8417 20.9973C76.7606 20.9215 76.6461 20.8835 76.4984 20.8835C76.384 20.8835 76.2749 20.9002 76.1711 20.9334C76.0674 20.9667 75.9689 21.0059 75.8758 21.0512L75.774 20.7997C75.8724 20.7492 75.9855 20.7059 76.1133 20.67C76.241 20.6341 76.3754 20.6161 76.5164 20.6161ZM76.9595 21.7617L76.6262 21.7756C76.3534 21.7863 76.1612 21.8308 76.0494 21.9093C75.9376 21.9878 75.8818 22.0989 75.8818 22.2426C75.8818 22.3677 75.9197 22.4602 75.9955 22.52C76.0714 22.5799 76.1718 22.6098 76.2969 22.6098C76.4911 22.6098 76.6501 22.556 76.7739 22.4482C76.8976 22.3404 76.9595 22.1788 76.9595 21.9632V21.7617ZM79.0051 20.6121C79.2645 20.6121 79.4608 20.676 79.5938 20.8037C79.7269 20.9301 79.7934 21.1337 79.7934 21.4144V22.8394H79.4661V21.4364C79.4661 21.2541 79.4242 21.1177 79.3404 21.0272C79.2579 20.9368 79.1308 20.8915 78.9592 20.8915C78.717 20.8915 78.5467 20.96 78.4483 21.0971C78.3498 21.2341 78.3006 21.433 78.3006 21.6938V22.8394H77.9693V20.652H78.2367L78.2866 20.9674H78.3046C78.3512 20.8902 78.4104 20.8257 78.4822 20.7738C78.5541 20.7205 78.6345 20.6806 78.7237 20.654C78.8128 20.6261 78.9066 20.6121 79.0051 20.6121ZM83.6911 22.8394H83.2899L82.2382 21.4204L81.9268 21.6998V22.8394H81.5876V19.9216H81.9268V21.3765C82.0027 21.29 82.0805 21.2042 82.1604 21.119C82.2402 21.0325 82.3193 20.9454 82.3978 20.8576L83.25 19.9216H83.6472L82.4857 21.1869L83.6911 22.8394ZM84.8825 20.6121C85.0688 20.6121 85.2285 20.6534 85.3615 20.7358C85.4946 20.8183 85.5963 20.9341 85.6669 21.0831C85.7374 21.2308 85.7726 21.4038 85.7726 21.602V21.8076H84.2619C84.2659 22.0643 84.3297 22.2599 84.4534 22.3943C84.5772 22.5287 84.7515 22.5959 84.9763 22.5959C85.1147 22.5959 85.2371 22.5832 85.3435 22.558C85.45 22.5327 85.5604 22.4954 85.6748 22.4462V22.7376C85.5644 22.7868 85.4546 22.8227 85.3455 22.8453C85.2378 22.868 85.11 22.8793 84.9624 22.8793C84.7521 22.8793 84.5685 22.8367 84.4115 22.7515C84.2559 22.6651 84.1348 22.5387 84.0483 22.3724C83.9618 22.206 83.9186 22.0025 83.9186 21.7617C83.9186 21.5262 83.9578 21.3226 84.0363 21.151C84.1162 20.978 84.2279 20.8449 84.3716 20.7518C84.5166 20.6587 84.687 20.6121 84.8825 20.6121ZM84.8785 20.8835C84.7016 20.8835 84.5606 20.9414 84.4554 21.0572C84.3503 21.1729 84.2878 21.3346 84.2678 21.5421H85.4254C85.424 21.4117 85.4034 21.2973 85.3635 21.1989C85.3249 21.0991 85.2657 21.0219 85.1859 20.9674C85.1061 20.9115 85.0036 20.8835 84.8785 20.8835ZM86.6687 22.8394H86.3354V19.734H86.6687V22.8394ZM88.2114 20.6121C88.3977 20.6121 88.5574 20.6534 88.6904 20.7358C88.8235 20.8183 88.9252 20.9341 88.9957 21.0831C89.0663 21.2308 89.1015 21.4038 89.1015 21.602V21.8076H87.5908C87.5947 22.0643 87.6586 22.2599 87.7823 22.3943C87.9061 22.5287 88.0804 22.5959 88.3052 22.5959C88.4436 22.5959 88.566 22.5832 88.6724 22.558C88.7789 22.5327 88.8893 22.4954 89.0037 22.4462V22.7376C88.8933 22.7868 88.7835 22.8227 88.6744 22.8453C88.5667 22.868 88.4389 22.8793 88.2913 22.8793C88.081 22.8793 87.8974 22.8367 87.7404 22.7515C87.5848 22.6651 87.4637 22.5387 87.3772 22.3724C87.2907 22.206 87.2475 22.0025 87.2475 21.7617C87.2475 21.5262 87.2867 21.3226 87.3652 21.151C87.4451 20.978 87.5568 20.8449 87.7005 20.7518C87.8455 20.6587 88.0158 20.6121 88.2114 20.6121ZM88.2074 20.8835C88.0305 20.8835 87.8894 20.9414 87.7843 21.0572C87.6792 21.1729 87.6167 21.3346 87.5967 21.5421H88.7543C88.7529 21.4117 88.7323 21.2973 88.6924 21.1989C88.6538 21.0991 88.5946 21.0219 88.5148 20.9674C88.4349 20.9115 88.3325 20.8835 88.2074 20.8835ZM89.9956 19.734V20.5103C89.9956 20.5995 89.9929 20.686 89.9876 20.7698C89.9836 20.8536 89.9803 20.9188 89.9776 20.9654H89.9956C90.0555 20.8669 90.142 20.7837 90.2551 20.7159C90.3681 20.648 90.5125 20.6141 90.6881 20.6141C90.9622 20.6141 91.1804 20.7092 91.3427 20.8995C91.5064 21.0884 91.5882 21.3698 91.5882 21.7437C91.5882 21.9898 91.551 22.1974 91.4764 22.3664C91.4019 22.5353 91.2968 22.6631 91.1611 22.7495C91.0254 22.836 90.8651 22.8793 90.6801 22.8793C90.5072 22.8793 90.3648 22.8473 90.2531 22.7835C90.1426 22.7183 90.0575 22.6391 89.9976 22.546H89.9717L89.9038 22.8394H89.6643V19.734H89.9956ZM90.6342 20.8915C90.4759 20.8915 90.3502 20.9228 90.2571 20.9853C90.1639 21.0465 90.0967 21.1397 90.0555 21.2647C90.0156 21.3885 89.9956 21.5455 89.9956 21.7357V21.7537C89.9956 22.0291 90.0415 22.24 90.1333 22.3863C90.2251 22.5313 90.3921 22.6039 90.6342 22.6039C90.8378 22.6039 90.9902 22.5294 91.0913 22.3803C91.1937 22.2313 91.2449 22.0184 91.2449 21.7417C91.2449 21.4596 91.1944 21.2474 91.0933 21.1051C90.9935 20.9627 90.8405 20.8915 90.6342 20.8915ZM92.4983 20.652V22.8394H92.167V20.652H92.4983ZM92.3366 19.8338C92.3912 19.8338 92.4377 19.8517 92.4763 19.8877C92.5162 19.9223 92.5362 19.9768 92.5362 20.0513C92.5362 20.1245 92.5162 20.179 92.4763 20.215C92.4377 20.2509 92.3912 20.2688 92.3366 20.2688C92.2794 20.2688 92.2315 20.2509 92.1929 20.215C92.1557 20.179 92.137 20.1245 92.137 20.0513C92.137 19.9768 92.1557 19.9223 92.1929 19.8877C92.2315 19.8517 92.2794 19.8338 92.3366 19.8338ZM93.5321 19.734V20.662C93.5321 20.7152 93.5307 20.7691 93.5281 20.8237C93.5254 20.8769 93.5207 20.9261 93.5141 20.9713H93.536C93.5813 20.8942 93.6385 20.8296 93.7077 20.7778C93.7782 20.7245 93.858 20.6846 93.9472 20.658C94.0363 20.6301 94.1308 20.6161 94.2306 20.6161C94.4062 20.6161 94.5525 20.644 94.6696 20.6999C94.788 20.7558 94.8765 20.8423 94.9351 20.9594C94.9949 21.0765 95.0249 21.2281 95.0249 21.4144V22.8394H94.6976V21.4364C94.6976 21.2541 94.6557 21.1177 94.5718 21.0272C94.4893 20.9368 94.3623 20.8915 94.1906 20.8915C94.0283 20.8915 93.8986 20.9228 93.8015 20.9853C93.7057 21.0465 93.6365 21.137 93.5939 21.2567C93.5527 21.3765 93.5321 21.5228 93.5321 21.6958V22.8394H93.2008V19.734H93.5321ZM96.5257 20.6161C96.7864 20.6161 96.98 20.6746 97.1064 20.7917C97.2328 20.9088 97.296 21.0957 97.296 21.3525V22.8394H97.0545L96.9907 22.516H96.9747C96.9135 22.5959 96.8496 22.6631 96.7831 22.7176C96.7166 22.7708 96.6394 22.8114 96.5516 22.8394C96.4651 22.866 96.3587 22.8793 96.2323 22.8793C96.0992 22.8793 95.9808 22.856 95.877 22.8094C95.7746 22.7629 95.6934 22.6923 95.6336 22.5979C95.575 22.5034 95.5458 22.3837 95.5458 22.2386C95.5458 22.0204 95.6322 21.8528 95.8052 21.7357C95.9782 21.6186 96.2416 21.5548 96.5955 21.5441L96.9727 21.5282V21.3944C96.9727 21.2055 96.9321 21.0731 96.851 20.9973C96.7698 20.9215 96.6554 20.8835 96.5077 20.8835C96.3933 20.8835 96.2842 20.9002 96.1804 20.9334C96.0766 20.9667 95.9782 21.0059 95.885 21.0512L95.7832 20.7997C95.8817 20.7492 95.9948 20.7059 96.1225 20.67C96.2502 20.6341 96.3846 20.6161 96.5257 20.6161ZM96.9687 21.7617L96.6354 21.7756C96.3627 21.7863 96.1704 21.8308 96.0587 21.9093C95.9469 21.9878 95.891 22.0989 95.891 22.2426C95.891 22.3677 95.9289 22.4602 96.0048 22.52C96.0806 22.5799 96.1811 22.6098 96.3061 22.6098C96.5004 22.6098 96.6594 22.556 96.7831 22.4482C96.9068 22.3404 96.9687 22.1788 96.9687 21.9632V21.7617ZM99.0143 20.6121C99.2738 20.6121 99.47 20.676 99.6031 20.8037C99.7361 20.9301 99.8027 21.1337 99.8027 21.4144V22.8394H99.4754V21.4364C99.4754 21.2541 99.4334 21.1177 99.3496 21.0272C99.2671 20.9368 99.1401 20.8915 98.9684 20.8915C98.7263 20.8915 98.556 20.96 98.4575 21.0971C98.3591 21.2341 98.3098 21.433 98.3098 21.6938V22.8394H97.9786V20.652H98.246L98.2959 20.9674H98.3138C98.3604 20.8902 98.4196 20.8257 98.4915 20.7738C98.5633 20.7205 98.6438 20.6806 98.7329 20.654C98.8221 20.6261 98.9159 20.6121 99.0143 20.6121ZM46.4965 28.8394L45.5166 26.2569H45.5007C45.506 26.3114 45.5106 26.3779 45.5146 26.4564C45.5186 26.5349 45.522 26.6208 45.5246 26.7139C45.5273 26.8057 45.5286 26.8995 45.5286 26.9953V28.8394H45.2133V25.9216H45.7162L46.6402 28.3484H46.6542L47.5922 25.9216H48.0911V28.8394H47.7558V26.9713C47.7558 26.8849 47.7572 26.7984 47.7598 26.7119C47.7625 26.6241 47.7658 26.5416 47.7698 26.4644C47.7738 26.3859 47.7778 26.3181 47.7818 26.2609H47.7658L46.7739 28.8394H46.4965ZM49.6578 26.6161C49.9186 26.6161 50.1121 26.6746 50.2385 26.7917C50.3649 26.9088 50.4281 27.0957 50.4281 27.3525V28.8394H50.1867L50.1228 28.516H50.1068C50.0456 28.5959 49.9818 28.6631 49.9152 28.7176C49.8487 28.7708 49.7715 28.8114 49.6837 28.8394C49.5972 28.866 49.4908 28.8793 49.3644 28.8793C49.2314 28.8793 49.1129 28.856 49.0092 28.8094C48.9067 28.7629 48.8256 28.6923 48.7657 28.5979C48.7071 28.5034 48.6779 28.3837 48.6779 28.2386C48.6779 28.0204 48.7644 27.8528 48.9373 27.7357C49.1103 27.6186 49.3737 27.5548 49.7276 27.5441L50.1048 27.5282V27.3944C50.1048 27.2055 50.0643 27.0731 49.9831 26.9973C49.9019 26.9215 49.7875 26.8835 49.6398 26.8835C49.5254 26.8835 49.4163 26.9002 49.3125 26.9334C49.2087 26.9667 49.1103 27.0059 49.0172 27.0512L48.9154 26.7997C49.0138 26.7492 49.1269 26.7059 49.2546 26.67C49.3824 26.6341 49.5168 26.6161 49.6578 26.6161ZM50.1008 27.7617L49.7676 27.7756C49.4948 27.7863 49.3025 27.8308 49.1908 27.9093C49.079 27.9878 49.0231 28.0989 49.0231 28.2426C49.0231 28.3677 49.0611 28.4602 49.1369 28.52C49.2127 28.5799 49.3132 28.6098 49.4383 28.6098C49.6325 28.6098 49.7915 28.556 49.9152 28.4482C50.039 28.3404 50.1008 28.1788 50.1008 27.9632V27.7617ZM51.44 25.734V27.3465C51.44 27.3998 51.438 27.465 51.434 27.5421C51.43 27.618 51.4267 27.6852 51.424 27.7437H51.438C51.4659 27.7091 51.5065 27.6579 51.5597 27.59C51.6143 27.5222 51.6602 27.4676 51.6974 27.4264L52.4239 26.652H52.813L51.9329 27.586L52.8769 28.8394H52.4778L51.7054 27.8036L51.44 28.047V28.8394H51.1107V25.734H51.44ZM54.0763 26.6161C54.3371 26.6161 54.5307 26.6746 54.6571 26.7917C54.7835 26.9088 54.8467 27.0957 54.8467 27.3525V28.8394H54.6052L54.5414 28.516H54.5254C54.4642 28.5959 54.4003 28.6631 54.3338 28.7176C54.2673 28.7708 54.1901 28.8114 54.1023 28.8394C54.0158 28.866 53.9094 28.8793 53.783 28.8793C53.6499 28.8793 53.5315 28.856 53.4277 28.8094C53.3253 28.7629 53.2441 28.6923 53.1843 28.5979C53.1257 28.5034 53.0964 28.3837 53.0964 28.2386C53.0964 28.0204 53.1829 27.8528 53.3559 27.7357C53.5288 27.6186 53.7923 27.5548 54.1462 27.5441L54.5234 27.5282V27.3944C54.5234 27.2055 54.4828 27.0731 54.4017 26.9973C54.3205 26.9215 54.2061 26.8835 54.0584 26.8835C53.944 26.8835 53.8349 26.9002 53.7311 26.9334C53.6273 26.9667 53.5288 27.0059 53.4357 27.0512L53.3339 26.7997C53.4324 26.7492 53.5455 26.7059 53.6732 26.67C53.8009 26.6341 53.9353 26.6161 54.0763 26.6161ZM54.5194 27.7617L54.1861 27.7756C53.9134 27.7863 53.7211 27.8308 53.6093 27.9093C53.4976 27.9878 53.4417 28.0989 53.4417 28.2426C53.4417 28.3677 53.4796 28.4602 53.5555 28.52C53.6313 28.5799 53.7317 28.6098 53.8568 28.6098C54.0511 28.6098 54.2101 28.556 54.3338 28.4482C54.4575 28.3404 54.5194 28.1788 54.5194 27.9632V27.7617ZM56.565 26.6121C56.8245 26.6121 57.0207 26.676 57.1538 26.8037C57.2868 26.9301 57.3533 27.1337 57.3533 27.4144V28.8394H57.026V27.4364C57.026 27.2541 56.9841 27.1177 56.9003 27.0272C56.8178 26.9368 56.6908 26.8915 56.5191 26.8915C56.277 26.8915 56.1067 26.96 56.0082 27.0971C55.9098 27.2341 55.8605 27.433 55.8605 27.6938V28.8394H55.5292V26.652H55.7967L55.8466 26.9674H55.8645C55.9111 26.8902 55.9703 26.8257 56.0421 26.7738C56.114 26.7205 56.1945 26.6806 56.2836 26.654C56.3728 26.6261 56.4666 26.6121 56.565 26.6121ZM58.8541 26.6161C59.1149 26.6161 59.3085 26.6746 59.4349 26.7917C59.5613 26.9088 59.6245 27.0957 59.6245 27.3525V28.8394H59.383L59.3191 28.516H59.3032C59.242 28.5959 59.1781 28.6631 59.1116 28.7176C59.0451 28.7708 58.9679 28.8114 58.8801 28.8394C58.7936 28.866 58.6872 28.8793 58.5608 28.8793C58.4277 28.8793 58.3093 28.856 58.2055 28.8094C58.1031 28.7629 58.0219 28.6923 57.962 28.5979C57.9035 28.5034 57.8742 28.3837 57.8742 28.2386C57.8742 28.0204 57.9607 27.8528 58.1337 27.7357C58.3066 27.6186 58.5701 27.5548 58.924 27.5441L59.3012 27.5282V27.3944C59.3012 27.2055 59.2606 27.0731 59.1794 26.9973C59.0983 26.9215 58.9839 26.8835 58.8362 26.8835C58.7218 26.8835 58.6127 26.9002 58.5089 26.9334C58.4051 26.9667 58.3066 27.0059 58.2135 27.0512L58.1117 26.7997C58.2102 26.7492 58.3233 26.7059 58.451 26.67C58.5787 26.6341 58.7131 26.6161 58.8541 26.6161ZM59.2972 27.7617L58.9639 27.7756C58.6912 27.7863 58.4989 27.8308 58.3871 27.9093C58.2754 27.9878 58.2195 28.0989 58.2195 28.2426C58.2195 28.3677 58.2574 28.4602 58.3333 28.52C58.4091 28.5799 58.5095 28.6098 58.6346 28.6098C58.8289 28.6098 58.9879 28.556 59.1116 28.4482C59.2353 28.3404 59.2972 28.1788 59.2972 27.9632V27.7617ZM61.3428 26.6121C61.6023 26.6121 61.7985 26.676 61.9316 26.8037C62.0646 26.9301 62.1311 27.1337 62.1311 27.4144V28.8394H61.8038V27.4364C61.8038 27.2541 61.7619 27.1177 61.6781 27.0272C61.5956 26.9368 61.4686 26.8915 61.2969 26.8915C61.0548 26.8915 60.8845 26.96 60.786 27.0971C60.6876 27.2341 60.6383 27.433 60.6383 27.6938V28.8394H60.307V26.652H60.5745L60.6244 26.9674H60.6423C60.6889 26.8902 60.7481 26.8257 60.8199 26.7738C60.8918 26.7205 60.9723 26.6806 61.0614 26.654C61.1506 26.6261 61.2444 26.6121 61.3428 26.6121ZM64.6537 28.8793C64.377 28.8793 64.1575 28.7848 63.9952 28.5959C63.8342 28.4069 63.7537 28.1262 63.7537 27.7537C63.7537 27.3771 63.8362 27.0931 64.0011 26.9015C64.1661 26.7086 64.3857 26.6121 64.6597 26.6121C64.7755 26.6121 64.8766 26.6274 64.9631 26.658C65.0496 26.6886 65.1241 26.7299 65.1866 26.7818C65.2491 26.8323 65.3017 26.8902 65.3443 26.9554H65.3682C65.3629 26.9141 65.3576 26.8576 65.3523 26.7857C65.3469 26.7139 65.3443 26.6554 65.3443 26.6101V25.734H65.6756V28.8394H65.4081L65.3582 28.528H65.3443C65.303 28.5932 65.2505 28.6524 65.1866 28.7056C65.1241 28.7589 65.0489 28.8014 64.9611 28.8334C64.8746 28.864 64.7722 28.8793 64.6537 28.8793ZM64.7056 28.6039C64.9398 28.6039 65.1055 28.5373 65.2026 28.4043C65.2997 28.2712 65.3483 28.0737 65.3483 27.8116V27.7517C65.3483 27.4736 65.3017 27.2601 65.2086 27.111C65.1168 26.962 64.9491 26.8875 64.7056 26.8875C64.5021 26.8875 64.3497 26.966 64.2486 27.123C64.1475 27.2787 64.0969 27.4916 64.0969 27.7617C64.0969 28.0304 64.1468 28.238 64.2466 28.3843C64.3477 28.5307 64.5007 28.6039 64.7056 28.6039ZM66.7094 26.652V28.8394H66.3781V26.652H66.7094ZM66.5477 25.8338C66.6023 25.8338 66.6488 25.8517 66.6874 25.8877C66.7273 25.9223 66.7473 25.9768 66.7473 26.0513C66.7473 26.1245 66.7273 26.179 66.6874 26.215C66.6488 26.2509 66.6023 26.2688 66.5477 26.2688C66.4905 26.2688 66.4426 26.2509 66.404 26.215C66.3668 26.179 66.3481 26.1245 66.3481 26.0513C66.3481 25.9768 66.3668 25.9223 66.404 25.8877C66.4426 25.8517 66.4905 25.8338 66.5477 25.8338ZM70.627 28.8394H70.2258L69.1741 27.4204L68.8628 27.6998V28.8394H68.5235V25.9216H68.8628V27.3765C68.9386 27.29 69.0164 27.2042 69.0963 27.119C69.1761 27.0325 69.2553 26.9454 69.3338 26.8576L70.1859 25.9216H70.5831L69.4216 27.1869L70.627 28.8394ZM72.8622 27.7417C72.8622 27.9213 72.8389 28.0816 72.7924 28.2227C72.7458 28.3637 72.6786 28.4828 72.5908 28.5799C72.503 28.677 72.3965 28.7515 72.2715 28.8034C72.1477 28.854 72.0074 28.8793 71.8504 28.8793C71.704 28.8793 71.5696 28.854 71.4472 28.8034C71.3262 28.7515 71.2211 28.677 71.1319 28.5799C71.0441 28.4828 70.9756 28.3637 70.9263 28.2227C70.8785 28.0816 70.8545 27.9213 70.8545 27.7417C70.8545 27.5022 70.8951 27.2986 70.9762 27.131C71.0574 26.962 71.1732 26.8336 71.3235 26.7458C71.4752 26.6567 71.6555 26.6121 71.8643 26.6121C72.0639 26.6121 72.2382 26.6567 72.3872 26.7458C72.5376 26.835 72.654 26.964 72.7365 27.133C72.8203 27.3006 72.8622 27.5035 72.8622 27.7417ZM71.1978 27.7417C71.1978 27.9173 71.2211 28.0697 71.2676 28.1987C71.3142 28.3278 71.386 28.4276 71.4832 28.4981C71.5803 28.5686 71.7054 28.6039 71.8584 28.6039C72.01 28.6039 72.1344 28.5686 72.2316 28.4981C72.33 28.4276 72.4025 28.3278 72.4491 28.1987C72.4957 28.0697 72.5189 27.9173 72.5189 27.7417C72.5189 27.5674 72.4957 27.4171 72.4491 27.2907C72.4025 27.1629 72.3307 27.0645 72.2336 26.9953C72.1364 26.9261 72.0107 26.8915 71.8564 26.8915C71.6288 26.8915 71.4619 26.9667 71.3554 27.117C71.2503 27.2674 71.1978 27.4756 71.1978 27.7417ZM74.1415 28.6079C74.196 28.6079 74.2519 28.6032 74.3091 28.5939C74.3663 28.5846 74.4129 28.5733 74.4488 28.56V28.8174C74.4102 28.8347 74.3564 28.8493 74.2872 28.8613C74.2193 28.8733 74.1528 28.8793 74.0876 28.8793C73.9718 28.8793 73.8667 28.8593 73.7723 28.8194C73.6778 28.7782 73.602 28.709 73.5448 28.6118C73.4889 28.5147 73.4609 28.3803 73.4609 28.2087V26.9115H73.1496V26.7498L73.4629 26.6201L73.5946 26.1451H73.7942V26.652H74.4349V26.9115H73.7942V28.1987C73.7942 28.3358 73.8255 28.4382 73.888 28.5061C73.9519 28.5739 74.0364 28.6079 74.1415 28.6079ZM75.7101 26.6161C75.9709 26.6161 76.1645 26.6746 76.2909 26.7917C76.4173 26.9088 76.4805 27.0957 76.4805 27.3525V28.8394H76.239L76.1751 28.516H76.1592C76.098 28.5959 76.0341 28.6631 75.9676 28.7176C75.9011 28.7708 75.8239 28.8114 75.7361 28.8394C75.6496 28.866 75.5432 28.8793 75.4168 28.8793C75.2837 28.8793 75.1653 28.856 75.0615 28.8094C74.9591 28.7629 74.8779 28.6923 74.818 28.5979C74.7595 28.5034 74.7302 28.3837 74.7302 28.2386C74.7302 28.0204 74.8167 27.8528 74.9897 27.7357C75.1626 27.6186 75.4261 27.5548 75.78 27.5441L76.1572 27.5282V27.3944C76.1572 27.2055 76.1166 27.0731 76.0354 26.9973C75.9543 26.9215 75.8399 26.8835 75.6922 26.8835C75.5777 26.8835 75.4686 26.9002 75.3649 26.9334C75.2611 26.9667 75.1626 27.0059 75.0695 27.0512L74.9677 26.7997C75.0662 26.7492 75.1793 26.7059 75.307 26.67C75.4347 26.6341 75.5691 26.6161 75.7101 26.6161ZM76.1532 27.7617L75.8199 27.7756C75.5471 27.7863 75.3549 27.8308 75.2431 27.9093C75.1314 27.9878 75.0755 28.0989 75.0755 28.2426C75.0755 28.3677 75.1134 28.4602 75.1892 28.52C75.2651 28.5799 75.3655 28.6098 75.4906 28.6098C75.6849 28.6098 75.8438 28.556 75.9676 28.4482C76.0913 28.3404 76.1532 28.1788 76.1532 27.9632V27.7617ZM79.1707 28.8394H78.8295V26.2209H77.9114V25.9216H80.0848V26.2209H79.1707V28.8394ZM81.2942 26.6161C81.555 26.6161 81.7486 26.6746 81.875 26.7917C82.0014 26.9088 82.0646 27.0957 82.0646 27.3525V28.8394H81.8231L81.7592 28.516H81.7432C81.682 28.5959 81.6182 28.6631 81.5516 28.7176C81.4851 28.7708 81.408 28.8114 81.3201 28.8394C81.2337 28.866 81.1272 28.8793 81.0008 28.8793C80.8678 28.8793 80.7494 28.856 80.6456 28.8094C80.5431 28.7629 80.462 28.6923 80.4021 28.5979C80.3436 28.5034 80.3143 28.3837 80.3143 28.2386C80.3143 28.0204 80.4008 27.8528 80.5737 27.7357C80.7467 27.6186 81.0101 27.5548 81.3641 27.5441L81.7412 27.5282V27.3944C81.7412 27.2055 81.7007 27.0731 81.6195 26.9973C81.5383 26.9215 81.4239 26.8835 81.2762 26.8835C81.1618 26.8835 81.0527 26.9002 80.9489 26.9334C80.8452 26.9667 80.7467 27.0059 80.6536 27.0512L80.5518 26.7997C80.6502 26.7492 80.7633 26.7059 80.8911 26.67C81.0188 26.6341 81.1532 26.6161 81.2942 26.6161ZM81.7373 27.7617L81.404 27.7756C81.1312 27.7863 80.939 27.8308 80.8272 27.9093C80.7154 27.9878 80.6596 28.0989 80.6596 28.2426C80.6596 28.3677 80.6975 28.4602 80.7733 28.52C80.8492 28.5799 80.9496 28.6098 81.0747 28.6098C81.2689 28.6098 81.4279 28.556 81.5516 28.4482C81.6754 28.3404 81.7373 28.1788 81.7373 27.9632V27.7617ZM84.1621 28.2406C84.1621 28.3803 84.1268 28.4981 84.0563 28.5939C83.9871 28.6883 83.8873 28.7595 83.7569 28.8074C83.6279 28.8553 83.4735 28.8793 83.2939 28.8793C83.1409 28.8793 83.0085 28.8673 82.8968 28.8433C82.785 28.8194 82.6872 28.7855 82.6034 28.7416V28.4362C82.6925 28.4801 82.799 28.52 82.9227 28.556C83.0465 28.5919 83.1729 28.6098 83.3019 28.6098C83.4908 28.6098 83.6279 28.5792 83.713 28.518C83.7982 28.4568 83.8408 28.3737 83.8408 28.2686C83.8408 28.2087 83.8235 28.1561 83.7889 28.1109C83.7556 28.0643 83.6991 28.0198 83.6192 27.9772C83.5394 27.9333 83.429 27.8854 83.2879 27.8335C83.1482 27.7803 83.0272 27.7277 82.9247 27.6758C82.8236 27.6226 82.7451 27.5581 82.6892 27.4823C82.6347 27.4064 82.6074 27.308 82.6074 27.1869C82.6074 27.0019 82.6819 26.8603 82.8309 26.7618C82.9813 26.662 83.1782 26.6121 83.4217 26.6121C83.5534 26.6121 83.6764 26.6254 83.7909 26.652C83.9066 26.6773 84.0144 26.7119 84.1142 26.7558L84.0024 27.0212C83.9119 26.9827 83.8155 26.9501 83.713 26.9234C83.6106 26.8968 83.5061 26.8835 83.3997 26.8835C83.2467 26.8835 83.1289 26.9088 83.0465 26.9594C82.9653 27.0099 82.9247 27.0791 82.9247 27.1669C82.9247 27.2348 82.9433 27.2907 82.9806 27.3346C83.0192 27.3785 83.0804 27.4197 83.1642 27.4583C83.248 27.4969 83.3585 27.5421 83.4955 27.594C83.6325 27.6446 83.751 27.6971 83.8507 27.7517C83.9505 27.8049 84.027 27.8701 84.0802 27.9473C84.1348 28.0231 84.1621 28.1209 84.1621 28.2406ZM85.0262 26.652V28.8394H84.6949V26.652H85.0262ZM84.8646 25.8338C84.9191 25.8338 84.9657 25.8517 85.0043 25.8877C85.0442 25.9223 85.0641 25.9768 85.0641 26.0513C85.0641 26.1245 85.0442 26.179 85.0043 26.215C84.9657 26.2509 84.9191 26.2688 84.8646 26.2688C84.8074 26.2688 84.7595 26.2509 84.7209 26.215C84.6836 26.179 84.665 26.1245 84.665 26.0513C84.665 25.9768 84.6836 25.9223 84.7209 25.8877C84.7595 25.8517 84.8074 25.8338 84.8646 25.8338ZM86.058 25.734V27.3465C86.058 27.3998 86.056 27.465 86.052 27.5421C86.048 27.618 86.0447 27.6852 86.0421 27.7437H86.056C86.084 27.7091 86.1245 27.6579 86.1778 27.59C86.2323 27.5222 86.2782 27.4676 86.3155 27.4264L87.0419 26.652H87.4311L86.551 27.586L87.495 28.8394H87.0958L86.3235 27.8036L86.058 28.047V28.8394H85.7287V25.734H86.058ZM90.2511 26.6121C90.4919 26.6121 90.6735 26.6753 90.7959 26.8017C90.9183 26.9268 90.9795 27.1283 90.9795 27.4064V28.8394H90.6522V27.4224C90.6522 27.2454 90.6136 27.113 90.5365 27.0252C90.4606 26.9361 90.3475 26.8915 90.1972 26.8915C89.9856 26.8915 89.832 26.9527 89.7362 27.0751C89.6404 27.1975 89.5925 27.3778 89.5925 27.616V28.8394H89.2632V27.4224C89.2632 27.304 89.2459 27.2055 89.2113 27.127C89.178 27.0485 89.1275 26.99 89.0596 26.9514C88.9931 26.9115 88.9086 26.8915 88.8062 26.8915C88.6611 26.8915 88.5447 26.9215 88.4569 26.9813C88.3691 27.0412 88.3052 27.1303 88.2653 27.2488C88.2267 27.3658 88.2074 27.5102 88.2074 27.6818V28.8394H87.8761V26.652H88.1436L88.1935 26.9614H88.2114C88.2553 26.8855 88.3105 26.8217 88.3771 26.7698C88.4436 26.7179 88.5181 26.6786 88.6006 26.652C88.6831 26.6254 88.7709 26.6121 88.864 26.6121C89.0303 26.6121 89.1694 26.6434 89.2811 26.7059C89.3942 26.7671 89.4761 26.8609 89.5266 26.9873H89.5446C89.6164 26.8609 89.7149 26.7671 89.8399 26.7059C89.965 26.6434 90.1021 26.6121 90.2511 26.6121ZM92.4783 26.6161C92.7391 26.6161 92.9327 26.6746 93.0591 26.7917C93.1855 26.9088 93.2487 27.0957 93.2487 27.3525V28.8394H93.0072L92.9433 28.516H92.9273C92.8661 28.5959 92.8023 28.6631 92.7358 28.7176C92.6692 28.7708 92.5921 28.8114 92.5043 28.8394C92.4178 28.866 92.3113 28.8793 92.1849 28.8793C92.0519 28.8793 91.9335 28.856 91.8297 28.8094C91.7272 28.7629 91.6461 28.6923 91.5862 28.5979C91.5277 28.5034 91.4984 28.3837 91.4984 28.2386C91.4984 28.0204 91.5849 27.8528 91.7578 27.7357C91.9308 27.6186 92.1942 27.5548 92.5482 27.5441L92.9254 27.5282V27.3944C92.9254 27.2055 92.8848 27.0731 92.8036 26.9973C92.7225 26.9215 92.608 26.8835 92.4603 26.8835C92.3459 26.8835 92.2368 26.9002 92.133 26.9334C92.0293 26.9667 91.9308 27.0059 91.8377 27.0512L91.7359 26.7997C91.8344 26.7492 91.9474 26.7059 92.0752 26.67C92.2029 26.6341 92.3373 26.6161 92.4783 26.6161ZM92.9214 27.7617L92.5881 27.7756C92.3153 27.7863 92.1231 27.8308 92.0113 27.9093C91.8995 27.9878 91.8437 28.0989 91.8437 28.2426C91.8437 28.3677 91.8816 28.4602 91.9574 28.52C92.0333 28.5799 92.1337 28.6098 92.2588 28.6098C92.453 28.6098 92.612 28.556 92.7358 28.4482C92.8595 28.3404 92.9214 28.1788 92.9214 27.9632V27.7617ZM94.2645 28.8394H93.9312V25.734H94.2645V28.8394ZM95.7832 26.6161C96.044 26.6161 96.2376 26.6746 96.364 26.7917C96.4904 26.9088 96.5536 27.0957 96.5536 27.3525V28.8394H96.3121L96.2483 28.516H96.2323C96.1711 28.5959 96.1072 28.6631 96.0407 28.7176C95.9742 28.7708 95.897 28.8114 95.8092 28.8394C95.7227 28.866 95.6163 28.8793 95.4899 28.8793C95.3568 28.8793 95.2384 28.856 95.1346 28.8094C95.0322 28.7629 94.951 28.6923 94.8912 28.5979C94.8326 28.5034 94.8033 28.3837 94.8033 28.2386C94.8033 28.0204 94.8898 27.8528 95.0628 27.7357C95.2358 27.6186 95.4992 27.5548 95.8531 27.5441L96.2303 27.5282V27.3944C96.2303 27.2055 96.1897 27.0731 96.1086 26.9973C96.0274 26.9215 95.913 26.8835 95.7653 26.8835C95.6509 26.8835 95.5418 26.9002 95.438 26.9334C95.3342 26.9667 95.2358 27.0059 95.1426 27.0512L95.0408 26.7997C95.1393 26.7492 95.2524 26.7059 95.3801 26.67C95.5078 26.6341 95.6422 26.6161 95.7832 26.6161ZM96.2263 27.7617L95.893 27.7756C95.6203 27.7863 95.428 27.8308 95.3162 27.9093C95.2045 27.9878 95.1486 28.0989 95.1486 28.2426C95.1486 28.3677 95.1865 28.4602 95.2624 28.52C95.3382 28.5799 95.4387 28.6098 95.5637 28.6098C95.758 28.6098 95.917 28.556 96.0407 28.4482C96.1644 28.3404 96.2263 28.1788 96.2263 27.9632V27.7617ZM96.8909 26.652H97.2461L97.7291 27.9213C97.757 27.9958 97.783 28.0677 97.8069 28.1369C97.8309 28.2047 97.8522 28.2699 97.8708 28.3324C97.8894 28.395 97.9041 28.4555 97.9147 28.5141H97.9287C97.9473 28.4475 97.9739 28.3604 98.0085 28.2526C98.0431 28.1435 98.0803 28.0324 98.1203 27.9193L98.5773 26.652H98.9345L97.9825 29.1607C97.932 29.295 97.8728 29.4121 97.8049 29.5119C97.7384 29.6117 97.6572 29.6882 97.5614 29.7414C97.4657 29.796 97.3499 29.8233 97.2142 29.8233C97.1517 29.8233 97.0964 29.8193 97.0485 29.8113C97.0006 29.8046 96.9594 29.7966 96.9248 29.7873V29.5219C96.9541 29.5285 96.9893 29.5345 97.0306 29.5399C97.0732 29.5452 97.1171 29.5478 97.1623 29.5478C97.2448 29.5478 97.316 29.5319 97.3758 29.4999C97.437 29.4693 97.4896 29.4241 97.5335 29.3642C97.5774 29.3044 97.6153 29.2332 97.6473 29.1507L97.767 28.8433L96.8909 26.652ZM100.102 26.6161C100.363 26.6161 100.556 26.6746 100.683 26.7917C100.809 26.9088 100.872 27.0957 100.872 27.3525V28.8394H100.631L100.567 28.516H100.551C100.49 28.5959 100.426 28.6631 100.359 28.7176C100.293 28.7708 100.216 28.8114 100.128 28.8394C100.041 28.866 99.935 28.8793 99.8086 28.8793C99.6756 28.8793 99.5572 28.856 99.4534 28.8094C99.351 28.7629 99.2698 28.6923 99.2099 28.5979C99.1514 28.5034 99.1221 28.3837 99.1221 28.2386C99.1221 28.0204 99.2086 27.8528 99.3816 27.7357C99.5545 27.6186 99.818 27.5548 100.172 27.5441L100.549 27.5282V27.3944C100.549 27.2055 100.508 27.0731 100.427 26.9973C100.346 26.9215 100.232 26.8835 100.084 26.8835C99.9696 26.8835 99.8605 26.9002 99.7568 26.9334C99.653 26.9667 99.5545 27.0059 99.4614 27.0512L99.3596 26.7997C99.4581 26.7492 99.5712 26.7059 99.6989 26.67C99.8266 26.6341 99.961 26.6161 100.102 26.6161ZM100.545 27.7617L100.212 27.7756C99.939 27.7863 99.7468 27.8308 99.635 27.9093C99.5233 27.9878 99.4674 28.0989 99.4674 28.2426C99.4674 28.3677 99.5053 28.4602 99.5811 28.52C99.657 28.5799 99.7574 28.6098 99.8825 28.6098C100.077 28.6098 100.236 28.556 100.359 28.4482C100.483 28.3404 100.545 28.1788 100.545 27.9632V27.7617Z" fill="#124990"/>
</g>
<defs>
<filter id="filter0_d_84_1814" x="0.194775" y="0.956366" width="109.433" height="39.8532" filterUnits="userSpaceOnUse" color-interpolation-filters="sRGB">
<feFlood flood-opacity="0" result="BackgroundImageFix"/>
<feColorMatrix in="SourceAlpha" type="matrix" values="0 0 0 0 0 0 0 0 0 0 0 0 0 0 0 0 0 0 127 0" result="hardAlpha"/>
<feOffset dy="2.04363"/>
<feGaussianBlur stdDeviation="2.04363"/>
<feComposite in2="hardAlpha" operator="out"/>
<feColorMatrix type="matrix" values="0 0 0 0 0 0 0 0 0 0 0 0 0 0 0 0 0 0 0.25 0"/>
<feBlend mode="normal" in2="BackgroundImageFix" result="effect1_dropShadow_84_1814"/>
<feBlend mode="normal" in="SourceGraphic" in2="effect1_dropShadow_84_1814" result="shape"/>
</filter>
</defs>
</svg>
