<svg width="82" height="24" viewBox="0 0 82 24" fill="none" xmlns="http://www.w3.org/2000/svg">
<rect x="0.282043" width="81.5202" height="24" rx="1.40162" fill="white"/>
<path d="M7.82504 13.4652C7.82504 13.7309 7.76286 13.9598 7.63849 14.152C7.51977 14.3386 7.32191 14.511 7.0449 14.6693C6.85834 14.7824 6.64069 14.8671 6.39195 14.9237C6.14321 14.9802 5.89164 15.0085 5.63725 15.0085C5.3772 15.0085 5.05497 14.9237 4.67055 14.7541C4.39354 14.6184 4.17307 14.4573 4.00913 14.2707C3.85084 14.0842 3.77169 13.8807 3.77169 13.6602C3.77169 13.5076 3.80561 13.3973 3.87345 13.3295C3.94129 13.256 4.05152 13.2192 4.20416 13.2192C4.28331 13.2192 4.36528 13.2532 4.45008 13.321C4.53487 13.3832 4.58575 13.4454 4.60271 13.5076C4.68186 13.7393 4.82036 13.9174 5.01822 14.0418C5.21609 14.1605 5.462 14.2199 5.75597 14.2199C6.09516 14.2199 6.37782 14.1577 6.60395 14.0333C6.83573 13.9089 6.95162 13.7422 6.95162 13.533C6.95162 13.3295 6.82725 13.1486 6.57851 12.9903C6.32977 12.832 6.07537 12.7218 5.81533 12.6596C5.44221 12.5578 5.1115 12.4363 4.82319 12.2949C4.52357 12.148 4.30027 11.9671 4.15328 11.7522C4.0063 11.5374 3.93281 11.3113 3.93281 11.0738C3.93281 10.8534 4.00913 10.6301 4.16176 10.4039C4.3144 10.1722 4.4953 10.0054 4.70447 9.90363C4.81753 9.8471 5.00974 9.78774 5.2811 9.72556C5.5581 9.65772 5.75879 9.6238 5.88316 9.6238C6.04711 9.6238 6.22801 9.64358 6.42587 9.68316C6.62373 9.72273 6.78485 9.77926 6.90922 9.85275C7.15796 9.99408 7.34169 10.1213 7.46041 10.2343C7.57913 10.3474 7.63849 10.4887 7.63849 10.6583C7.63849 10.7601 7.59891 10.8505 7.51977 10.9297C7.44628 11.0088 7.31625 11.0484 7.1297 11.0484C7.08447 11.0484 7.03925 11.0286 6.99402 10.989C6.94879 10.9495 6.89226 10.8901 6.82442 10.811C6.73397 10.6923 6.64635 10.6131 6.56155 10.5735C6.47675 10.5453 6.35238 10.5142 6.18844 10.4803C6.03015 10.4463 5.88882 10.4294 5.76445 10.4294C5.62877 10.4294 5.48744 10.4576 5.34046 10.5142C5.19347 10.5707 5.0691 10.6527 4.96734 10.7601C4.87124 10.8619 4.82319 10.9806 4.82319 11.1162C4.82319 11.2293 4.87407 11.3282 4.97582 11.413C5.08324 11.4922 5.21043 11.5572 5.35742 11.6081C5.52701 11.6759 5.71074 11.7353 5.9086 11.7862C6.16865 11.8653 6.38065 11.9388 6.54459 12.0066C6.71419 12.0688 6.87813 12.148 7.03642 12.2441C7.31343 12.408 7.51411 12.5776 7.63849 12.7528C7.76286 12.9224 7.82504 13.1599 7.82504 13.4652ZM8.55026 13.2023C8.55026 12.9875 8.58984 12.7726 8.66898 12.5578C8.74813 12.3373 8.85271 12.1366 8.98273 11.9557C9.11276 11.7748 9.3191 11.6279 9.60176 11.5148C9.88442 11.3961 10.136 11.3367 10.3565 11.3367C10.5826 11.3367 10.8115 11.3678 11.0433 11.43C11.2808 11.4922 11.4447 11.5883 11.5352 11.7183C11.7443 12.0123 11.8489 12.3006 11.8489 12.5833C11.8489 12.7359 11.815 12.8659 11.7472 12.9733C11.685 13.0807 11.5945 13.1966 11.4758 13.321C11.3797 13.4228 11.2271 13.4906 11.0179 13.5245C10.8144 13.5584 10.6109 13.5754 10.4073 13.5754C10.2773 13.5754 10.119 13.5641 9.93247 13.5415C9.74592 13.5132 9.56501 13.4793 9.38977 13.4397C9.40107 13.5528 9.42934 13.663 9.47456 13.7704C9.51979 13.8778 9.57349 13.9598 9.63568 14.0163C9.74874 14.1238 9.86463 14.1916 9.98335 14.2199C10.1077 14.2481 10.266 14.2623 10.4582 14.2623C10.6617 14.2623 10.8511 14.2283 11.0264 14.1605C11.1677 14.1096 11.2836 14.0842 11.374 14.0842C11.4815 14.0842 11.5634 14.1181 11.62 14.1859C11.6765 14.2481 11.7048 14.3301 11.7048 14.4319C11.7048 14.5732 11.6228 14.6891 11.4588 14.7795C11.2949 14.87 11.1055 14.9378 10.8907 14.983C10.6815 15.0226 10.5119 15.0424 10.3819 15.0424C10.1162 15.0424 9.85898 14.9943 9.61024 14.8982C9.3615 14.8021 9.15516 14.6665 8.99121 14.4912C8.85554 14.3329 8.74813 14.1435 8.66898 13.9231C8.58984 13.6969 8.55026 13.4567 8.55026 13.2023ZM10.3989 12.0575C10.2745 12.0575 10.1501 12.0829 10.0258 12.1338C9.90138 12.179 9.79962 12.2441 9.72048 12.3289C9.61872 12.4363 9.54805 12.5239 9.50848 12.5917C9.47456 12.6539 9.45195 12.7415 9.44064 12.8546C9.58197 12.8998 9.87594 12.9224 10.3225 12.9224C10.5656 12.9224 10.7522 12.8857 10.8822 12.8122C11.0179 12.7387 11.0857 12.6426 11.0857 12.5239C11.0857 12.4052 11.0122 12.2978 10.8653 12.2017C10.7183 12.1056 10.5628 12.0575 10.3989 12.0575ZM12.6593 12.066C12.5801 12.0547 12.5151 12.0208 12.4642 11.9642C12.419 11.9077 12.3964 11.8399 12.3964 11.7607C12.3964 11.7211 12.4049 11.6787 12.4218 11.6335C12.4444 11.5883 12.4755 11.5487 12.5151 11.5148C12.5886 11.4413 12.7865 11.4046 13.1087 11.4046C13.1539 11.1841 13.1765 10.9608 13.1765 10.7347C13.1765 10.6499 13.1737 10.5764 13.1681 10.5142C13.1624 10.452 13.1596 10.4039 13.1596 10.37C13.1596 10.2457 13.2048 10.1524 13.2952 10.0902C13.3914 10.028 13.4988 9.99691 13.6175 9.99691C13.7645 9.99691 13.8634 10.0337 13.9143 10.1071C13.9708 10.1806 13.9991 10.3163 13.9991 10.5142C13.9991 10.8081 13.9736 11.0965 13.9228 11.3791C14.0132 11.3791 14.1376 11.3735 14.2959 11.3622C14.5107 11.3509 14.6662 11.3452 14.7623 11.3452C14.8584 11.3452 14.9403 11.3706 15.0082 11.4215C15.0817 11.4667 15.1184 11.5318 15.1184 11.6166C15.1184 11.837 15.0195 11.9671 14.8216 12.0066C14.6124 12.0575 14.2874 12.0886 13.8464 12.0999C13.8295 12.3204 13.821 12.5606 13.821 12.8207C13.821 13.2277 13.8464 13.5613 13.8973 13.8213C13.9312 14.0022 13.9878 14.1351 14.0669 14.2199C14.1517 14.299 14.2761 14.3386 14.44 14.3386C14.5361 14.3386 14.6351 14.3131 14.7368 14.2623C14.8047 14.2227 14.8668 14.2029 14.9234 14.2029C15.0025 14.2029 15.0591 14.2283 15.093 14.2792C15.1325 14.3301 15.1523 14.3979 15.1523 14.4827C15.1523 14.641 15.0675 14.7739 14.8979 14.8813C14.7283 14.983 14.5107 15.0339 14.245 15.0339C14.081 15.0339 13.9143 14.9943 13.7447 14.9152C13.5807 14.8361 13.4422 14.7371 13.3292 14.6184C13.3122 14.6014 13.2811 14.5364 13.2359 14.4234C13.1907 14.3103 13.1511 14.1888 13.1172 14.0587C13.0606 13.793 13.0324 13.4199 13.0324 12.9394C13.0324 12.7302 13.0437 12.4504 13.0663 12.0999L12.6593 12.066ZM19.0698 15.0339C18.8776 15.0339 18.7306 15.0057 18.6289 14.9491C18.5271 14.8869 18.4169 14.7739 18.2981 14.6099C18.1512 14.74 17.9307 14.8445 17.6367 14.9237C17.3484 15.0028 17.0997 15.0424 16.8905 15.0424C16.5456 15.0424 16.2658 14.9491 16.051 14.7626C15.8418 14.5704 15.7372 14.2905 15.7372 13.9231C15.7372 13.7648 15.7796 13.6206 15.8644 13.4906C15.9549 13.3549 16.0708 13.2362 16.2121 13.1344C16.3704 13.027 16.557 12.9422 16.7718 12.88C16.9922 12.8179 17.1929 12.7868 17.3738 12.7868C17.6791 12.7868 17.9505 12.815 18.1879 12.8716V12.8631C18.1879 12.5578 18.1116 12.3486 17.9589 12.2356C17.812 12.1169 17.5745 12.0575 17.2466 12.0575C17.0375 12.0575 16.8566 12.1508 16.7039 12.3373C16.6474 12.4108 16.5287 12.4476 16.3478 12.4476C16.2573 12.4476 16.1895 12.4108 16.1443 12.3373C16.1047 12.2582 16.0849 12.179 16.0849 12.0999C16.0849 11.936 16.1527 11.7946 16.2884 11.6759C16.4298 11.5572 16.5994 11.4696 16.7972 11.413C16.9951 11.3509 17.1788 11.3198 17.3484 11.3198C17.5123 11.3198 17.7074 11.3537 17.9335 11.4215C18.1596 11.4894 18.3434 11.5798 18.4847 11.6929C18.6543 11.8399 18.7843 12.0123 18.8748 12.2101C18.9709 12.4024 19.0189 12.6143 19.0189 12.8461C19.0189 12.9196 19.0133 13.0299 19.002 13.1768C18.9907 13.3464 18.985 13.4849 18.985 13.5924C18.985 13.6432 18.9794 13.7082 18.968 13.7874C18.9567 13.8891 18.9511 13.9739 18.9511 14.0418C18.9511 14.1153 18.9737 14.1859 19.0189 14.2538C19.0641 14.3216 19.1263 14.3781 19.2055 14.4234C19.279 14.4629 19.327 14.5053 19.3496 14.5506C19.3722 14.5958 19.3836 14.6467 19.3836 14.7032C19.3836 14.7597 19.3468 14.8304 19.2733 14.9152C19.2055 14.9943 19.1376 15.0339 19.0698 15.0339ZM17.3738 13.4143C17.1534 13.4143 16.9583 13.4567 16.7887 13.5415C16.6191 13.6263 16.5343 13.7761 16.5343 13.9909C16.5343 14.0983 16.5711 14.1888 16.6446 14.2623C16.7237 14.3357 16.8085 14.3725 16.899 14.3725C17.1421 14.3725 17.3456 14.3471 17.5095 14.2962C17.6735 14.2453 17.8713 14.152 18.1031 14.0163C18.1314 13.9259 18.1483 13.7987 18.154 13.6348C18.154 13.5726 18.1568 13.5245 18.1625 13.4906C17.8572 13.4397 17.5943 13.4143 17.3738 13.4143ZM20.0127 12.0829C19.8713 11.9642 19.8007 11.8257 19.8007 11.6674C19.8007 11.5883 19.8402 11.5176 19.9194 11.4554C19.9985 11.3876 20.0946 11.3537 20.2077 11.3537C20.4112 11.3537 20.578 11.4074 20.708 11.5148C20.838 11.6222 20.9511 11.7777 21.0472 11.9812C21.1659 11.7607 21.3157 11.5996 21.4966 11.4978C21.6832 11.3904 21.9178 11.3367 22.2004 11.3367C22.37 11.3367 22.5057 11.3593 22.6075 11.4046C22.7149 11.4441 22.8025 11.5035 22.8703 11.5826C22.9382 11.6561 23.023 11.7692 23.1247 11.9218C23.2717 11.7409 23.4555 11.5996 23.6759 11.4978C23.9021 11.3961 24.1338 11.3452 24.3713 11.3452C24.6483 11.3452 24.8999 11.4611 25.126 11.6929C25.3578 11.9247 25.5132 12.1875 25.5924 12.4815C25.6206 12.6059 25.6404 12.8998 25.6517 13.3634L25.6856 13.8552C25.7139 14.1548 25.81 14.3329 25.974 14.3895C26.0531 14.4121 26.1181 14.4403 26.169 14.4743C26.2255 14.5025 26.2538 14.5336 26.2538 14.5675C26.2651 14.7032 26.234 14.8021 26.1605 14.8643C26.1096 14.8982 26.039 14.935 25.9485 14.9746C25.8581 15.0141 25.7874 15.0339 25.7365 15.0339C25.4313 15.0339 25.2136 14.9237 25.0836 14.7032C24.9988 14.5562 24.9451 14.3895 24.9225 14.2029C24.8999 14.0107 24.8885 13.7506 24.8885 13.4228C24.8885 13.0723 24.8461 12.7726 24.7613 12.5239C24.6765 12.2695 24.4843 12.1423 24.1847 12.1423C24.0773 12.1423 23.9699 12.1762 23.8625 12.2441C23.7607 12.3062 23.6872 12.3854 23.642 12.4815C23.5629 12.6341 23.5092 12.8009 23.4809 12.9818C23.4526 13.1571 23.4385 13.3606 23.4385 13.5924C23.4385 13.7393 23.447 13.8891 23.4639 14.0418C23.4639 14.087 23.4668 14.1605 23.4724 14.2623C23.4837 14.3584 23.4894 14.446 23.4894 14.5251C23.4894 14.6665 23.4611 14.788 23.4046 14.8898C23.3537 14.9859 23.2632 15.0339 23.1332 15.0339C22.8223 15.0339 22.6584 14.87 22.6414 14.5421C22.6414 14.3103 22.6442 14.1859 22.6499 14.169V13.8043C22.6499 13.6008 22.6414 13.403 22.6244 13.2108C22.6075 13.0186 22.5877 12.8744 22.5651 12.7783C22.5142 12.5917 22.4464 12.4476 22.3616 12.3458C22.2768 12.2441 22.1467 12.1932 21.9715 12.1932C21.8528 12.1932 21.7425 12.2214 21.6408 12.278C21.539 12.3345 21.4514 12.4137 21.3779 12.5154C21.2705 12.685 21.1998 12.8914 21.1659 13.1344C21.132 13.4454 21.1065 13.6913 21.0896 13.8722C21.0783 14.0474 21.0726 14.2509 21.0726 14.4827C21.0726 14.6467 21.0444 14.7795 20.9878 14.8813C20.937 14.983 20.838 15.0339 20.691 15.0339C20.5836 15.0339 20.4706 15.0057 20.3518 14.9491C20.2388 14.8869 20.1822 14.805 20.1822 14.7032C20.1822 14.5958 20.1936 14.4884 20.2162 14.381C20.267 14.0587 20.2925 13.5104 20.2925 12.7359C20.2925 12.6115 20.2642 12.49 20.2077 12.3713C20.1568 12.2469 20.0918 12.1508 20.0127 12.0829ZM30.6946 14.593C30.6946 14.7173 30.6267 14.8219 30.491 14.9067C30.3554 14.9915 30.231 15.0339 30.1179 15.0339C29.9088 15.0339 29.7392 15.0085 29.6091 14.9576C29.4848 14.9011 29.3661 14.7993 29.253 14.6523C29.1117 14.7824 28.9138 14.8813 28.6594 14.9491C28.405 15.0113 28.1704 15.0424 27.9556 15.0424C27.6051 15.0424 27.3139 14.9491 27.0822 14.7626C26.856 14.5704 26.743 14.2905 26.743 13.9231C26.743 13.7648 26.791 13.6065 26.8871 13.4482C26.9832 13.2843 27.102 13.1542 27.2433 13.0581C27.3959 12.9564 27.5683 12.8885 27.7605 12.8546C27.9528 12.815 28.1761 12.7952 28.4305 12.7952C28.5492 12.7952 28.6905 12.8179 28.8544 12.8631C29.0184 12.9083 29.1484 12.9564 29.2445 13.0072V12.8716C29.2445 12.5663 29.1682 12.3571 29.0156 12.2441C28.8686 12.1253 28.6311 12.066 28.3033 12.066C28.2015 12.066 28.1082 12.0829 28.0234 12.1169C27.9443 12.1451 27.851 12.1875 27.7436 12.2441C27.6418 12.3006 27.5457 12.3289 27.4553 12.3289C27.3761 12.3289 27.2998 12.2978 27.2263 12.2356C27.1528 12.1677 27.1161 12.0971 27.1161 12.0236C27.1161 11.7862 27.2631 11.6137 27.557 11.5063C27.8567 11.3933 28.1619 11.3367 28.4729 11.3367C28.6311 11.3367 28.812 11.3706 29.0156 11.4385C29.2191 11.5007 29.3915 11.5883 29.5328 11.7014C29.7024 11.8427 29.8325 12.0123 29.9229 12.2101C30.019 12.408 30.0671 12.6228 30.0671 12.8546C30.0671 12.9281 30.0614 13.0383 30.0501 13.1853C30.0388 13.3436 30.0331 13.4793 30.0331 13.5924L30.0247 13.8213C30.0134 13.9457 30.0077 14.0446 30.0077 14.1181C30.0077 14.1859 30.0303 14.2453 30.0755 14.2962C30.1264 14.3414 30.1858 14.364 30.2536 14.364L30.491 14.3555C30.5532 14.3555 30.6013 14.381 30.6352 14.4319C30.6748 14.4771 30.6946 14.5308 30.6946 14.593ZM27.9556 14.3725C28.1987 14.3725 28.4022 14.3471 28.5661 14.2962C28.7301 14.2453 28.9279 14.152 29.1597 14.0163C29.1823 13.9202 29.1965 13.793 29.2021 13.6348C28.8912 13.4878 28.634 13.4143 28.4305 13.4143C28.2382 13.4143 28.0828 13.4228 27.9641 13.4397C27.8453 13.451 27.7379 13.4991 27.6418 13.5839C27.5457 13.6687 27.4977 13.8043 27.4977 13.9909C27.4977 14.0983 27.5486 14.1888 27.6503 14.2623C27.7577 14.3357 27.8595 14.3725 27.9556 14.3725ZM35.1088 14.3471C35.137 14.3584 35.1823 14.3725 35.2444 14.3895C35.3066 14.4064 35.3519 14.4234 35.3801 14.4403C35.4084 14.4573 35.4225 14.4827 35.4225 14.5167C35.4282 14.6523 35.3773 14.7654 35.2699 14.8558C35.1681 14.9406 35.0466 14.983 34.9053 14.983C34.6848 14.983 34.5124 14.9237 34.388 14.805C34.2636 14.6862 34.1732 14.5053 34.1166 14.2623C34.094 14.1662 34.0827 14.0333 34.0827 13.8637C34.0827 13.7676 34.0884 13.6121 34.0997 13.3973C34.111 13.1712 34.1166 12.9903 34.1166 12.8546C34.1166 12.6115 34.0912 12.4278 34.0403 12.3034C33.9894 12.1734 33.8679 12.1084 33.6757 12.1084C33.4778 12.1084 33.2997 12.1875 33.1415 12.3458C32.9888 12.5041 32.8588 12.7415 32.7514 13.0581C32.6044 13.4991 32.5224 14.0842 32.5055 14.8134C32.5055 14.853 32.4631 14.9011 32.3783 14.9576C32.2991 15.0085 32.203 15.0339 32.09 15.0339C31.8808 15.0339 31.7508 14.9237 31.6999 14.7032L31.6914 14.559C31.6914 14.5082 31.6971 14.4488 31.7084 14.381C31.7762 13.9852 31.8101 13.6404 31.8101 13.3464C31.8101 13.2164 31.8073 13.1147 31.8016 13.0412L31.7932 12.6426C31.7932 12.5069 31.7592 12.3769 31.6914 12.2525C31.6236 12.1225 31.5444 12.0575 31.454 12.0575C31.4257 12.0575 31.3861 12.0688 31.3353 12.0914C31.2844 12.1084 31.242 12.1169 31.2081 12.1169C31.1515 12.1169 31.0893 12.0886 31.0215 12.0321C30.9593 11.9755 30.9282 11.9162 30.9282 11.854C30.9282 11.7353 30.9678 11.6392 31.0469 11.5657C31.1317 11.4978 31.2137 11.4441 31.2929 11.4046C31.3777 11.365 31.4738 11.3452 31.5812 11.3452C31.6716 11.3452 31.7451 11.3537 31.8016 11.3706C31.8582 11.3876 31.9345 11.4243 32.0306 11.4809C32.0871 11.5091 32.1521 11.5883 32.2256 11.7183C32.2991 11.8483 32.3557 12.0321 32.3952 12.2695C32.5083 12.0603 32.6977 11.8399 32.9634 11.6081C33.1612 11.4272 33.4467 11.3367 33.8198 11.3367C34.159 11.3367 34.4276 11.4611 34.6254 11.7098C34.8233 11.9529 34.9222 12.2893 34.9222 12.7189C34.9222 12.8037 34.9166 12.9422 34.9053 13.1344C34.8883 13.2871 34.8798 13.4482 34.8798 13.6178C34.8798 14.0135 34.9561 14.2566 35.1088 14.3471Z" fill="#206F36"/>
<path d="M46.2571 6.07309C34.466 3.49761 40.9485 17.8642 47.4835 20.8602C45.6264 21.1405 39.6294 17.4199 38.3905 12.8534C36.2706 5.03938 42.6655 2.74424 46.2571 6.07309Z" fill="#206F36"/>
<path d="M41.6653 18.0851C41.3829 17.8014 41.5427 17.2916 41.9632 17.2746C42.0911 17.2694 42.2021 17.318 42.299 17.398C42.3267 17.4208 42.1739 17.3296 42.2085 17.3394C42.6615 17.467 43.2255 17.3878 43.6851 17.3567C45.556 17.23 47.4417 16.8484 49.2022 16.2012C53.1829 14.7378 54.7427 11.9517 55.7449 7.99779C55.9661 7.12501 56.1451 6.22453 56.1763 5.32232C56.1864 5.02927 56.2296 4.57736 56.0606 4.31402C55.9475 4.1378 54.9785 4.0933 54.7767 4.08731C53.4357 4.04753 52.0756 4.25194 50.7741 4.56072C49.15 4.94604 47.4116 5.52732 46.1136 6.61635C44.1319 8.27916 43.2516 11.0929 42.7525 13.5383C42.5541 14.5102 42.4094 15.4993 42.3618 16.4909C42.3462 16.8145 42.2988 17.2053 42.3885 17.5232C42.3989 17.5601 42.3034 17.3973 42.327 17.426C42.708 17.8918 42.0643 18.4853 41.6374 18.0571C41.2458 17.6643 41.4314 16.2479 41.4772 15.7547C41.7026 13.3307 42.2859 10.8372 43.409 8.66593C45.317 4.97709 48.8989 3.71053 52.8123 3.25353C53.7593 3.14294 56.0218 2.88682 56.751 3.68399C57.0867 4.05101 57.1122 4.63307 57.1146 5.10282C57.1206 6.25491 56.8724 7.42194 56.5722 8.52841C55.9513 10.8168 54.9762 13.3017 53.211 14.9568C51.4964 16.5644 49.0786 17.3693 46.8233 17.8487C45.5842 18.1121 44.311 18.301 43.0422 18.3204C42.6508 18.3263 41.9731 18.3944 41.6653 18.0851ZM42.2385 17.9663C41.992 18.2265 41.5377 17.982 41.6602 17.6297C41.8396 17.1134 43.0939 15.6413 43.4802 15.1372C44.7721 13.4518 46.2079 11.9409 47.9002 10.6512C48.5311 10.1704 49.3155 9.49884 50.1202 9.34076C50.2303 9.31913 50.3117 9.45285 50.2299 9.53622C49.9541 9.81738 49.5087 10.0078 49.2077 10.2936C48.5334 10.9338 47.9359 11.6546 47.3396 12.3663C45.7179 14.3016 43.9743 16.1335 42.2385 17.9663Z" fill="#4BA84F"/>
<path d="M63.4259 10.2937C63.5107 10.3955 63.5701 10.4774 63.604 10.5396C63.6379 10.6018 63.6549 10.6612 63.6549 10.7177C63.6549 10.7855 63.6097 10.8647 63.5192 10.9551C63.4344 11.0456 63.3496 11.0908 63.2648 11.0908C63.1518 11.0908 63.0613 11.0738 62.9935 11.0399C62.9256 11.006 62.8691 10.9523 62.8239 10.8788C62.7334 10.7431 62.6232 10.6272 62.4932 10.5311C62.3631 10.4294 62.1596 10.3785 61.8826 10.3785C61.6452 10.3785 61.3738 10.4322 61.0686 10.5396C60.7689 10.647 60.5541 10.7799 60.4241 10.9382C60.311 11.0795 60.2121 11.2943 60.1273 11.5826C60.0481 11.8709 60.0086 12.1508 60.0086 12.4221C60.0086 12.75 60.0792 13.0525 60.2206 13.3295C60.3676 13.6008 60.5767 13.8185 60.8481 13.9824C61.1251 14.1464 61.4558 14.2283 61.8402 14.2283C62.0494 14.2283 62.2642 14.1888 62.4847 14.1096C62.7108 14.0248 62.9058 13.8891 63.0698 13.7026H63.0613C63.1631 13.5952 63.2903 13.5415 63.4429 13.5415C63.5334 13.5415 63.6182 13.581 63.6973 13.6602C63.7821 13.7393 63.8245 13.8185 63.8245 13.8976C63.8245 13.9824 63.8104 14.0587 63.7821 14.1266C63.7595 14.1888 63.7143 14.2594 63.6464 14.3386C63.4146 14.5986 63.1405 14.7767 62.8239 14.8728C62.5073 14.9689 62.1285 15.017 61.6876 15.017C61.2975 15.017 60.9018 14.9237 60.5004 14.7371C60.1047 14.5506 59.7994 14.3244 59.5846 14.0587C59.4715 13.8948 59.3613 13.6602 59.2539 13.3549C59.1521 13.044 59.1012 12.7924 59.1012 12.6002C59.1012 12.1084 59.1747 11.642 59.3217 11.201C59.4743 10.7544 59.7005 10.3983 60.0001 10.1326C60.198 9.95168 60.4834 9.81601 60.8566 9.72556C61.2297 9.63511 61.5717 9.58988 61.8826 9.58988C62.2614 9.58988 62.5582 9.64358 62.773 9.751C62.9935 9.85275 63.2111 10.0337 63.4259 10.2937ZM65.0081 9.55596C65.206 9.57292 65.3784 9.62663 65.5254 9.71708C65.6723 9.80187 65.7458 9.9319 65.7458 10.1071C65.7458 10.2372 65.6836 10.3418 65.5593 10.4209C65.4406 10.4944 65.2964 10.5311 65.1268 10.5311C64.9629 10.5311 64.8498 10.4887 64.7876 10.4039C64.7254 10.3191 64.6943 10.2315 64.6943 10.1411C64.6943 9.97147 64.7113 9.83014 64.7452 9.71708C64.7848 9.60401 64.8724 9.55031 65.0081 9.55596ZM65.6865 13.3125V13.5584C65.6865 13.7789 65.6921 13.9881 65.7034 14.1859C65.7204 14.3781 65.7402 14.5732 65.7628 14.771C65.7571 14.8276 65.7147 14.8869 65.6356 14.9491C65.5565 15.0057 65.4858 15.0339 65.4236 15.0339C65.3162 15.0339 65.206 15.0141 65.0929 14.9746C64.9855 14.9293 64.9205 14.8756 64.8979 14.8134C64.8639 14.6325 64.847 14.4714 64.847 14.3301C64.847 13.8665 64.8328 13.3464 64.8046 12.7698C64.782 12.261 64.7707 11.9049 64.7707 11.7014C64.7707 11.5996 64.8215 11.512 64.9233 11.4385C65.025 11.365 65.1325 11.3282 65.2455 11.3282C65.4095 11.3282 65.5225 11.365 65.5847 11.4385C65.6526 11.512 65.6865 11.6279 65.6865 11.7862V13.3125ZM70.6121 14.3471C70.6403 14.3584 70.6855 14.3725 70.7477 14.3895C70.8099 14.4064 70.8551 14.4234 70.8834 14.4403C70.9117 14.4573 70.9258 14.4827 70.9258 14.5167C70.9315 14.6523 70.8806 14.7654 70.7732 14.8558C70.6714 14.9406 70.5499 14.983 70.4085 14.983C70.1881 14.983 70.0156 14.9237 69.8913 14.805C69.7669 14.6862 69.6764 14.5053 69.6199 14.2623C69.5973 14.1662 69.586 14.0333 69.586 13.8637C69.586 13.7676 69.5916 13.6121 69.603 13.3973C69.6143 13.1712 69.6199 12.9903 69.6199 12.8546C69.6199 12.6567 69.5634 12.4843 69.4503 12.3373C69.3429 12.1847 69.1903 12.1084 68.9924 12.1084C68.8737 12.1084 68.7493 12.1451 68.6193 12.2186C68.4893 12.2865 68.3988 12.3713 68.3479 12.473C68.2631 12.637 68.2038 12.815 68.1699 13.0072C68.1077 13.3464 68.0766 13.6998 68.0766 14.0672C68.0766 14.2425 68.0794 14.3781 68.0851 14.4743C68.0851 14.4969 68.0851 14.5421 68.0851 14.6099C68.0907 14.6721 68.0851 14.7315 68.0681 14.788C68.0568 14.8389 68.0342 14.8869 68.0003 14.9322C67.972 14.9604 67.9268 14.983 67.8646 15C67.8081 15.0226 67.7544 15.0339 67.7035 15.0339C67.6243 15.0339 67.5254 15 67.4067 14.9322C67.288 14.8643 67.2201 14.788 67.2032 14.7032L67.1947 14.559C67.1947 14.5082 67.2003 14.4488 67.2116 14.381C67.2795 13.9852 67.3134 13.6404 67.3134 13.3464C67.3134 13.2164 67.3106 13.1147 67.3049 13.0412L67.2964 12.6426C67.2964 12.5069 67.2625 12.3769 67.1947 12.2525C67.1268 12.1225 67.0477 12.0575 66.9573 12.0575C66.929 12.0575 66.8894 12.0688 66.8385 12.0914C66.7877 12.1084 66.7453 12.1169 66.7113 12.1169C66.6548 12.1169 66.5926 12.0886 66.5248 12.0321C66.4626 11.9755 66.4315 11.9162 66.4315 11.854C66.4315 11.7353 66.4711 11.6392 66.5502 11.5657C66.635 11.4978 66.717 11.4441 66.7961 11.4046C66.8809 11.365 66.977 11.3452 67.0845 11.3452C67.1749 11.3452 67.2484 11.3537 67.3049 11.3706C67.3615 11.3876 67.4378 11.4243 67.5339 11.4809C67.5848 11.5091 67.6441 11.5713 67.712 11.6674C67.7798 11.7635 67.8363 11.8992 67.8816 12.0745C68.0285 11.8031 68.2094 11.6137 68.4243 11.5063C68.6447 11.3933 68.9246 11.3367 69.2638 11.3367C69.3938 11.3367 69.5323 11.3791 69.6793 11.4639C69.8319 11.5487 69.9619 11.6476 70.0693 11.7607C70.1711 11.8851 70.2559 12.0405 70.3237 12.2271C70.3916 12.408 70.4255 12.5719 70.4255 12.7189C70.4255 12.8037 70.4198 12.9422 70.4085 13.1344C70.3916 13.2871 70.3831 13.4482 70.3831 13.6178C70.3831 14.0135 70.4594 14.2566 70.6121 14.3471ZM71.54 12.049C71.4609 12.0377 71.3958 12.0066 71.345 11.9557C71.2997 11.8992 71.2771 11.8314 71.2771 11.7522C71.2771 11.6505 71.3167 11.5657 71.3958 11.4978C71.4128 11.4809 71.4411 11.4667 71.4806 11.4554C71.5202 11.4385 71.5513 11.4243 71.5739 11.413C71.6983 11.3735 71.7774 11.3424 71.8113 11.3198C71.9414 11.2406 72.029 11.1106 72.0742 10.9297C72.1194 10.7149 72.1477 10.5679 72.159 10.4887C72.1703 10.3644 72.2099 10.2711 72.2777 10.2089C72.3512 10.1411 72.4417 10.1071 72.5491 10.1071C72.6904 10.1071 72.7894 10.1439 72.8459 10.2174C72.9024 10.2909 72.9307 10.4266 72.9307 10.6244C72.9307 10.8845 72.8685 11.1304 72.7441 11.3622C72.8233 11.3622 72.9533 11.3565 73.1342 11.3452C73.4056 11.3339 73.5949 11.3282 73.7023 11.3282C73.7985 11.3282 73.8804 11.3537 73.9483 11.4046C74.0218 11.4498 74.0585 11.5176 74.0585 11.6081C74.0585 11.8229 73.9596 11.9501 73.7617 11.9897C73.5808 12.0405 73.2529 12.0716 72.778 12.0829C72.7385 12.637 72.7187 13.0751 72.7187 13.3973C72.7187 13.5952 72.7272 13.7365 72.7441 13.8213C72.778 13.9966 72.8346 14.1266 72.9137 14.2114C72.9985 14.2905 73.1229 14.3301 73.2868 14.3301C73.366 14.3301 73.4847 14.3103 73.643 14.2707C73.7391 14.2425 73.8154 14.2283 73.8719 14.2283C73.9454 14.2283 74.002 14.2538 74.0415 14.3047C74.0811 14.3555 74.1009 14.4234 74.1009 14.5082C74.1009 14.6608 74.002 14.788 73.8041 14.8898C73.6062 14.9859 73.3716 15.0339 73.1003 15.0339C72.9307 15.0339 72.7639 14.9943 72.6 14.9152C72.436 14.8304 72.2975 14.7286 72.1845 14.6099C72.1618 14.5986 72.1279 14.5364 72.0827 14.4234C72.0431 14.3103 72.0036 14.1859 71.964 14.0503C71.947 13.9824 71.9385 13.8185 71.9385 13.5584C71.9385 13.3097 71.9555 12.88 71.9894 12.2695L71.9979 12.0829C71.9583 12.0829 71.8848 12.0801 71.7774 12.0745C71.67 12.0632 71.5909 12.0547 71.54 12.049ZM77.934 15.0339C77.7418 15.0339 77.5948 15.0057 77.493 14.9491C77.3913 14.8869 77.281 14.7739 77.1623 14.6099C77.0153 14.74 76.7949 14.8445 76.5009 14.9237C76.2126 15.0028 75.9638 15.0424 75.7547 15.0424C75.4098 15.0424 75.13 14.9491 74.9152 14.7626C74.706 14.5704 74.6014 14.2905 74.6014 13.9231C74.6014 13.7648 74.6438 13.6206 74.7286 13.4906C74.8191 13.3549 74.9349 13.2362 75.0763 13.1344C75.2346 13.027 75.4211 12.9422 75.6359 12.88C75.8564 12.8179 76.0571 12.7868 76.238 12.7868C76.5433 12.7868 76.8146 12.815 77.0521 12.8716V12.8631C77.0521 12.5578 76.9758 12.3486 76.8231 12.2356C76.6761 12.1169 76.4387 12.0575 76.1108 12.0575C75.9016 12.0575 75.7207 12.1508 75.5681 12.3373C75.5116 12.4108 75.3929 12.4476 75.212 12.4476C75.1215 12.4476 75.0537 12.4108 75.0084 12.3373C74.9689 12.2582 74.9491 12.179 74.9491 12.0999C74.9491 11.936 75.0169 11.7946 75.1526 11.6759C75.2939 11.5572 75.4635 11.4696 75.6614 11.413C75.8592 11.3509 76.043 11.3198 76.2126 11.3198C76.3765 11.3198 76.5716 11.3537 76.7977 11.4215C77.0238 11.4894 77.2075 11.5798 77.3489 11.6929C77.5185 11.8399 77.6485 12.0123 77.7389 12.2101C77.835 12.4024 77.8831 12.6143 77.8831 12.8461C77.8831 12.9196 77.8774 13.0299 77.8661 13.1768C77.8548 13.3464 77.8492 13.4849 77.8492 13.5924C77.8492 13.6432 77.8435 13.7082 77.8322 13.7874C77.8209 13.8891 77.8153 13.9739 77.8153 14.0418C77.8153 14.1153 77.8379 14.1859 77.8831 14.2538C77.9283 14.3216 77.9905 14.3781 78.0697 14.4234C78.1431 14.4629 78.1912 14.5053 78.2138 14.5506C78.2364 14.5958 78.2477 14.6467 78.2477 14.7032C78.2477 14.7597 78.211 14.8304 78.1375 14.9152C78.0697 14.9943 78.0018 15.0339 77.934 15.0339ZM76.238 13.4143C76.0175 13.4143 75.8225 13.4567 75.6529 13.5415C75.4833 13.6263 75.3985 13.7761 75.3985 13.9909C75.3985 14.0983 75.4353 14.1888 75.5087 14.2623C75.5879 14.3357 75.6727 14.3725 75.7631 14.3725C76.0062 14.3725 76.2097 14.3471 76.3737 14.2962C76.5376 14.2453 76.7355 14.152 76.9673 14.0163C76.9955 13.9259 77.0125 13.7987 77.0182 13.6348C77.0182 13.5726 77.021 13.5245 77.0266 13.4906C76.7214 13.4397 76.4585 13.4143 76.238 13.4143Z" fill="#4BA84F"/>
</svg>
