<svg width="109" height="38" viewBox="0 0 109 38" fill="none" xmlns="http://www.w3.org/2000/svg">
<rect x="0.282043" width="108" height="37.594" rx="9.6" fill="white"/>
<rect x="10.6731" y="5.26318" width="24.0602" height="12.782" fill="#0A8AC7" fill-opacity="0.6"/>
<ellipse cx="16.3122" cy="18.7971" rx="10.5263" ry="10.5263" fill="#FFDF41" fill-opacity="0.6"/>
<ellipse cx="24.5828" cy="24.0602" rx="8.27068" ry="8.27068" fill="#0F8B52" fill-opacity="0.6"/>
<path d="M11.3814 29.2522C11.3814 29.2522 19.5979 32.3744 30.2757 24.6081C30.2757 24.6081 34.8894 16.6673 38.6601 16.4714" stroke="black" stroke-width="0.238158" stroke-miterlimit="10"/>
<path d="M31.7235 15.2171C31.7235 15.2171 34.1968 11.4917 40.3722 14.2365C40.3722 14.2365 40.1841 14.1388 39.4196 15.2171" stroke="black" stroke-width="0.238158" stroke-miterlimit="10"/>
<path d="M38.6986 17.0979C38.6986 17.0979 34.9863 20.4125 36.2575 24.432C36.2575 24.432 35.0982 25.3292 32.6768 25.5472" stroke="black" stroke-width="0.238158" stroke-miterlimit="10"/>
<path d="M31.7235 26.498C31.7235 26.498 25.7261 34.4573 11.4831 31.7482" stroke="black" stroke-width="0.238158" stroke-miterlimit="10"/>
<path d="M30.9829 16.2954C30.9829 16.2954 28.7746 18.7097 26.4162 20.0023" stroke="black" stroke-width="0.238158" stroke-miterlimit="10"/>
<path d="M14.7625 24.4749C14.7625 24.4749 10.5066 25.2084 10.297 28.1068" stroke="black" stroke-width="0.238158" stroke-miterlimit="10"/>
<path d="M16.4904 22.9947C16.4904 22.9947 18.5022 20.8197 23.8006 26.498" stroke="black" stroke-width="0.238158" stroke-miterlimit="10"/>
<path d="M18.9922 20.638C18.9922 20.638 23.6297 16.0678 29.2169 24.4748" stroke="black" stroke-width="0.238158" stroke-miterlimit="10"/>
<path d="M35.2948 19.3979C35.2948 19.3979 33.6307 21.3473 32.6751 23.923" stroke="black" stroke-width="0.238158" stroke-miterlimit="10"/>
<path d="M10.6281 24.522V9.13696H34.9012" stroke="black" stroke-width="0.238158" stroke-miterlimit="10"/>
<path d="M12.9568 21.5247V12.4526H30.6942" stroke="black" stroke-width="0.238158" stroke-miterlimit="10"/>
<path d="M19.892 13.45H14.7626V14.5282H19.892V13.45Z" stroke="black" stroke-width="0.238158" stroke-miterlimit="10"/>
<path d="M25.0207 15.8135H14.7626V16.8917H25.0207V15.8135Z" stroke="black" stroke-width="0.238158" stroke-miterlimit="10"/>
<path d="M29.7069 13.45H20.5283V14.5282H29.7069V13.45Z" stroke="black" stroke-width="0.238158" stroke-miterlimit="10"/>
<path d="M34.8279 6.63616V8.3515H10.5549V5.26318H20.0717V6.63616H34.8279Z" stroke="black" stroke-width="0.238158" stroke-miterlimit="10"/>
<path d="M55.4337 24.5162C55.5658 24.5162 55.6319 24.597 55.6319 24.7585C55.6319 24.9201 55.5769 25.0816 55.4667 25.2431C55.3639 25.4047 55.2097 25.5589 55.0041 25.7057C54.4975 26.0582 53.9578 26.2344 53.3851 26.2344C52.8197 26.2344 52.3608 26.1499 52.0084 25.9811C51.6559 25.8122 51.3292 25.5882 51.0281 25.3092C50.7271 25.0229 50.4517 24.6961 50.2021 24.329C49.9524 23.9619 49.7175 23.58 49.4972 23.1835L48.8474 21.994C48.0911 20.5549 47.4523 19.7142 46.931 19.4719C45.4404 23.4736 43.8434 25.6947 42.1399 26.1353C42.0298 26.1646 41.9087 26.1793 41.7765 26.1793C41.637 26.1793 41.5122 26.1573 41.402 26.1132C41.2845 26.0692 41.1854 26.0104 41.1046 25.937C40.9358 25.7975 40.8513 25.6506 40.8513 25.4964C40.8513 25.3349 40.9101 25.2101 41.0275 25.122C42.2978 24.1895 43.5791 21.7884 44.8714 17.9189C45.6203 15.6647 46.1416 13.6308 46.4353 11.8172C46.5161 11.3106 46.5565 10.9214 46.5565 10.6498C46.2555 10.6644 45.9728 10.7415 45.7084 10.8811C45.4514 11.0206 45.2312 11.1491 45.0476 11.2665C44.864 11.384 44.7135 11.4428 44.596 11.4428C44.4786 11.4428 44.3501 11.406 44.2105 11.3326C44.0784 11.2592 43.9572 11.1674 43.8471 11.0573C43.5901 10.8003 43.4616 10.5727 43.4616 10.3744C43.4616 10.1762 43.5203 10.011 43.6378 9.87879C43.7627 9.74663 43.9168 9.63282 44.1004 9.53736C44.284 9.44191 44.4859 9.36114 44.7062 9.29506C44.9338 9.22163 45.1541 9.16656 45.367 9.12985C45.7708 9.04908 46.1196 9.0087 46.4133 9.0087C46.707 9.0087 47.0154 9.05643 47.3385 9.15188C47.6616 9.23999 47.9406 9.37216 48.1755 9.54838C48.6895 9.92285 48.9465 10.3854 48.9465 10.9361C48.9465 12.1036 48.5941 13.9539 47.8892 16.4871C47.6616 17.3095 47.4046 18.1318 47.1182 18.9542C48.8951 17.5812 49.9708 16.7404 50.3453 16.432C50.7271 16.1163 51.1456 15.7382 51.6009 15.2976C52.0561 14.8571 52.4563 14.4018 52.8014 13.9319C53.5503 12.9039 53.9248 11.8723 53.9248 10.837C53.9248 10.4552 53.8257 10.1211 53.6274 9.83474C53.5687 9.73929 53.5393 9.6475 53.5393 9.55939C53.5393 9.47128 53.5723 9.39051 53.6384 9.31709C53.7118 9.24366 53.8 9.18125 53.9027 9.12985C54.0937 9.04908 54.336 9.0087 54.6297 9.0087C54.9307 9.0087 55.1987 9.07478 55.4337 9.20695C55.676 9.33177 55.8779 9.49331 56.0394 9.69156C56.3552 10.0954 56.513 10.58 56.513 11.1454C56.513 11.7034 56.3992 12.2468 56.1716 12.7754C55.944 13.2968 55.6393 13.7887 55.2575 14.2513C54.883 14.7139 54.4498 15.1544 53.9578 15.573C53.4659 15.9915 52.9556 16.3917 52.4269 16.7735L50.8189 17.9189C50.2902 18.286 49.7982 18.6532 49.343 19.0203C49.879 19.4388 50.5031 20.1694 51.2154 21.2121L52.0634 22.4787C52.6729 23.4112 53.1648 24.0243 53.5393 24.318C53.9138 24.6043 54.2221 24.7475 54.4645 24.7475C54.7141 24.7475 54.916 24.7108 55.0702 24.6374C55.2244 24.5566 55.3456 24.5162 55.4337 24.5162ZM56.6782 22.2804C56.7076 21.6416 56.8141 21.0322 56.9976 20.4521C57.1812 19.8647 57.4272 19.2993 57.7356 18.756C58.044 18.2053 58.4037 17.6876 58.8149 17.203C59.2335 16.7111 59.685 16.2815 60.1696 15.9144C61.2196 15.1287 62.2806 14.7359 63.3526 14.7359C64.6082 14.7359 65.4453 15.2536 65.8638 16.2889C66.0107 16.6413 66.0804 17.0598 66.0731 17.5444C66.0657 18.0217 65.9739 18.4659 65.7977 18.8771C65.6215 19.281 65.3755 19.6518 65.0598 19.9895C64.7514 20.3199 64.3806 20.6173 63.9474 20.8816C63.5215 21.146 63.0553 21.3699 62.5486 21.5535C61.506 21.9206 60.3899 22.1115 59.2004 22.1262C59.171 22.229 59.1527 22.3832 59.1453 22.5888C59.138 22.7944 59.16 23.0257 59.2114 23.2827C59.2628 23.5323 59.3509 23.7563 59.4758 23.9545C59.7401 24.3951 60.1219 24.6153 60.6212 24.6153C61.4729 24.6153 62.3027 24.3657 63.1103 23.8664C63.3967 23.6975 63.628 23.525 63.8042 23.3487C63.9878 23.1652 64.1456 23.0734 64.2778 23.0734C64.41 23.0734 64.5238 23.1542 64.6192 23.3157C64.722 23.4699 64.7734 23.6461 64.7734 23.8444C64.7734 24.2335 64.6633 24.5713 64.443 24.8576C63.5178 25.7828 62.1411 26.2454 60.3128 26.2454C59.2335 26.2454 58.367 25.9223 57.7135 25.2762C56.9793 24.5419 56.6342 23.5433 56.6782 22.2804ZM63.1103 16.2008C62.3394 16.2008 61.5978 16.7294 60.8855 17.7867C60.2834 18.6972 59.7988 19.7766 59.4317 21.0248C60.6579 20.9 61.7226 20.4154 62.6257 19.571C63.4554 18.778 63.8703 18.018 63.8703 17.2911C63.8703 16.5642 63.617 16.2008 63.1103 16.2008ZM67.7472 25.6947C67.5636 25.5038 67.4131 25.2615 67.2956 24.9678C67.1855 24.6667 67.1304 24.3216 67.1304 23.9325C67.1304 23.536 67.2185 23.0073 67.3947 22.3465C67.5783 21.6857 67.8096 20.933 68.0886 20.0886L69.0138 17.3462C70.3281 13.5281 71.088 10.5763 71.2936 8.49105C71.3597 7.87427 71.6608 7.56588 72.1968 7.56588C72.5345 7.56588 72.8135 7.64665 73.0338 7.80819C73.4597 8.13126 73.6653 8.49105 73.6506 8.88755C73.6359 9.28405 73.5662 9.76866 73.4413 10.3414C73.3165 10.9068 73.155 11.5272 72.9567 12.2027C72.7585 12.8709 72.5309 13.5795 72.2739 14.3284L70.754 18.8C69.8802 21.3406 69.4433 22.9816 69.4433 23.7232C69.4433 24.1197 69.6048 24.318 69.9279 24.318C70.2363 24.318 70.5153 24.2519 70.765 24.1197C71.022 23.9876 71.1872 23.9215 71.2606 23.9215C71.4148 23.9215 71.4919 23.9986 71.4919 24.1528C71.4919 24.8062 71.1578 25.3533 70.4896 25.7938C70.0417 26.0949 69.6305 26.2454 69.2561 26.2454C68.8889 26.2454 68.5916 26.2013 68.3639 26.1132C68.1363 26.0251 67.9307 25.8856 67.7472 25.6947ZM74.5317 25.3863C74.2233 25.0926 73.981 24.7218 73.8048 24.2739C73.6286 23.8187 73.5368 23.2827 73.5294 22.6659C73.5221 22.0491 73.5955 21.425 73.7497 20.7935C73.9113 20.1621 74.1352 19.5526 74.4216 18.9652C74.7153 18.3778 75.064 17.8271 75.4679 17.3132C75.8791 16.7992 76.3306 16.3513 76.8226 15.9695C77.8946 15.1471 79.007 14.7359 80.1598 14.7359C81.6724 14.7359 82.6967 15.4004 83.2327 16.7294C83.6145 17.6913 83.6365 18.8551 83.2987 20.2208C82.9904 21.4764 82.425 22.6292 81.6026 23.6792C80.7876 24.7292 79.8257 25.4744 78.717 25.915C78.1589 26.1353 77.6082 26.2454 77.0649 26.2454C76.5289 26.2454 76.048 26.1756 75.6221 26.0361C75.2036 25.8966 74.8401 25.68 74.5317 25.3863ZM76.6354 20.0446C76.4151 20.5879 76.2389 21.146 76.1067 21.7187C75.9819 22.2914 75.9231 22.8348 75.9305 23.3487C75.9378 23.8554 76.0149 24.2556 76.1618 24.5493C76.316 24.8356 76.5619 24.9788 76.8997 24.9788C77.2374 24.9788 77.5679 24.865 77.8909 24.6374C78.2214 24.4024 78.5408 24.094 78.8491 23.7122C79.1575 23.3304 79.4476 22.8898 79.7192 22.3905C79.9909 21.8912 80.2295 21.3699 80.4351 20.8266C80.883 19.6444 81.0996 18.5944 81.085 17.6766C81.085 16.8689 80.9197 16.3549 80.5893 16.1347C80.4572 16.0466 80.2699 16.0025 80.0276 16.0025C79.7927 16.0025 79.521 16.1126 79.2126 16.3329C78.9042 16.5459 78.5958 16.8359 78.2874 17.203C77.979 17.5701 77.6817 17.9997 77.3953 18.4916C77.109 18.9836 76.8556 19.5012 76.6354 20.0446ZM93.4205 16.8175C92.9946 16.8175 92.2163 17.4343 91.0855 18.6679C90.2411 19.6297 89.628 20.353 89.2462 20.8376L88.255 22.0932C87.8291 22.9008 87.495 23.5727 87.2527 24.1087L86.658 25.3863C86.5038 25.702 86.3679 25.926 86.2505 26.0582C86.1403 26.183 85.9861 26.2454 85.7879 26.2454C85.597 26.2454 85.4097 26.2087 85.2262 26.1353C85.0499 26.0692 84.8958 25.9811 84.7636 25.8709C84.4846 25.636 84.3451 25.379 84.3451 25.1C84.3451 24.9898 84.4258 24.7732 84.5874 24.4501L85.0059 23.558C85.1381 23.2937 85.2923 22.9559 85.4685 22.5447L86.0853 21.0358C86.9517 18.8698 87.3849 17.471 87.3849 16.8396C87.3849 16.5018 87.2747 16.2521 87.0545 16.0906L86.8342 15.9364C86.7608 15.885 86.7241 15.7969 86.7241 15.6721C86.7241 15.5399 86.7718 15.4151 86.8672 15.2976C86.97 15.1801 87.1022 15.0773 87.2637 14.9892C87.5941 14.8203 87.9246 14.7359 88.255 14.7359C88.5927 14.7359 88.8571 14.7726 89.048 14.846C89.2389 14.9195 89.4041 15.0186 89.5436 15.1434C89.8226 15.4004 89.9621 15.6684 89.9621 15.9474C89.9621 16.2264 89.9254 16.5091 89.852 16.7955C89.7786 17.0745 89.6868 17.3609 89.5766 17.6546C89.4665 17.9409 89.349 18.22 89.2242 18.4916C88.9305 19.1231 88.7469 19.5123 88.6735 19.6591C88.6074 19.7986 88.5891 19.85 88.6184 19.8133C89.9621 18.0731 90.7698 17.0451 91.0415 16.7294C91.6069 16.0759 92.0474 15.628 92.3632 15.3857C92.9432 14.9525 93.4902 14.7359 94.0042 14.7359C94.5255 14.7359 94.9404 14.8974 95.2488 15.2205C95.5572 15.5436 95.7114 15.9695 95.7114 16.4981C95.7114 16.9607 95.5939 17.5041 95.3589 18.1282C95.124 18.7523 94.9661 19.1892 94.8853 19.4388L96.5044 17.3021L97.4075 16.2228C97.9509 15.6133 98.4281 15.2132 98.8393 15.0223C99.2505 14.8314 99.5846 14.7359 99.8416 14.7359C100.106 14.7359 100.363 14.7836 100.613 14.8791C100.87 14.9745 101.086 15.1104 101.262 15.2866C101.637 15.6464 101.824 16.1237 101.824 16.7184C101.824 17.2911 101.692 17.8785 101.428 18.4806C101.163 19.0827 100.932 19.5783 100.734 19.9675C100.535 20.3493 100.345 20.7348 100.161 21.1239C99.625 22.2914 99.357 23.1578 99.357 23.7232C99.357 24.1197 99.5185 24.318 99.8416 24.318C100.15 24.318 100.429 24.2519 100.679 24.1197C100.936 23.9876 101.101 23.9215 101.174 23.9215C101.328 23.9215 101.406 23.9986 101.406 24.1528C101.406 24.8062 101.071 25.3533 100.403 25.7938C99.9554 26.0949 99.5442 26.2454 99.1697 26.2454C98.8026 26.2454 98.5052 26.2013 98.2776 26.1132C98.05 26.0251 97.8444 25.8856 97.6608 25.6947C97.2496 25.2688 97.044 24.7365 97.044 24.0977C97.044 23.4589 97.1248 22.8715 97.2863 22.3355C97.4479 21.7995 97.6388 21.2818 97.8591 20.7825C98.0793 20.2759 98.2996 19.8133 98.5199 19.3948C98.7475 18.9689 98.9201 18.6311 99.0376 18.3815C99.2725 17.8675 99.39 17.4894 99.39 17.2471C99.39 16.9607 99.2395 16.8175 98.9384 16.8175C98.5419 16.8175 97.8297 17.4747 96.8017 18.789C96.0234 19.8096 95.4837 20.5439 95.1827 20.9918L94.4227 22.0932C93.9969 22.9008 93.6701 23.5727 93.4425 24.1087L92.8808 25.3863C92.7413 25.702 92.6201 25.926 92.5173 26.0582C92.4145 26.183 92.2714 26.2454 92.0878 26.2454C91.9042 26.2454 91.7243 26.216 91.5481 26.1573C91.3792 26.0985 91.2324 26.0214 91.1076 25.926C90.8212 25.7131 90.678 25.4891 90.678 25.2541C90.678 25.0118 90.7551 24.6851 90.9093 24.2739C91.0709 23.8554 91.2691 23.3891 91.5041 22.8752L93.046 19.615C93.5967 18.4035 93.8721 17.6362 93.8721 17.3132C93.8721 16.9827 93.7215 16.8175 93.4205 16.8175ZM94.5109 19.9234C94.5182 19.9234 94.5219 19.9198 94.5219 19.9124L94.5329 19.8904C94.5182 19.9051 94.5109 19.9161 94.5109 19.9234Z" fill="#272727"/>
<path d="M43.0467 30.2657L43.0445 29.2739H43.1761L44.4289 27.8736H45.3889L43.8479 29.5894H43.6777L43.0467 30.2657ZM42.2978 31.3596V26.7116H43.1194V31.3596H42.2978ZM44.4856 31.3596L43.3509 29.7732L43.9046 29.1945L45.4683 31.3596H44.4856ZM47.3361 31.4277C46.9866 31.4277 46.6848 31.3551 46.4306 31.2098C46.1779 31.0631 45.9835 30.8558 45.8473 30.588C45.7112 30.3187 45.6431 30.0017 45.6431 29.6371C45.6431 29.2785 45.7112 28.9638 45.8473 28.6929C45.985 28.4206 46.1772 28.2088 46.4238 28.0575C46.6704 27.9046 46.9602 27.8282 47.293 27.8282C47.5079 27.8282 47.7106 27.863 47.9013 27.9326C48.0934 28.0007 48.2629 28.1066 48.4096 28.2504C48.5579 28.3941 48.6744 28.5772 48.7591 28.7996C48.8439 29.0205 48.8862 29.2838 48.8862 29.5894V29.8413H46.0289V29.2875H48.0987C48.0972 29.1302 48.0631 28.9902 47.9966 28.8677C47.93 28.7436 47.837 28.646 47.7174 28.5749C47.5994 28.5038 47.4617 28.4682 47.3044 28.4682C47.1364 28.4682 46.9889 28.5091 46.8618 28.5908C46.7347 28.671 46.6356 28.7769 46.5645 28.9085C46.4949 29.0387 46.4594 29.1816 46.4578 29.3375V29.8209C46.4578 30.0236 46.4949 30.1976 46.569 30.3429C46.6432 30.4866 46.7468 30.5971 46.88 30.6742C47.0131 30.7499 47.169 30.7877 47.3475 30.7877C47.467 30.7877 47.5752 30.7711 47.672 30.7378C47.7689 30.703 47.8528 30.6523 47.9239 30.5857C47.9951 30.5191 48.0488 30.4367 48.0851 30.3383L48.8522 30.4246C48.8038 30.6273 48.7115 30.8043 48.5753 30.9556C48.4406 31.1054 48.2682 31.2219 48.0579 31.3052C47.8475 31.3869 47.607 31.4277 47.3361 31.4277ZM50.4028 26.7116V31.3596H49.5813V26.7116H50.4028ZM53.4695 29.8935V27.8736H54.2911V31.3596H53.4945V30.74H53.4582C53.3795 30.9352 53.2501 31.0948 53.0701 31.2189C52.8916 31.343 52.6714 31.405 52.4097 31.405C52.1812 31.405 51.9792 31.3543 51.8037 31.253C51.6297 31.1501 51.4935 31.001 51.3952 30.8059C51.2968 30.6092 51.2477 30.3716 51.2477 30.0932V27.8736H52.0692V29.9661C52.0692 30.187 52.1298 30.3625 52.2508 30.4927C52.3718 30.6228 52.5307 30.6878 52.7274 30.6878C52.8484 30.6878 52.9657 30.6583 53.0792 30.5993C53.1926 30.5403 53.2857 30.4526 53.3583 30.3361C53.4325 30.218 53.4695 30.0705 53.4695 29.8935ZM55.1359 31.3596V27.8736H55.9325V28.4546H55.9688C56.0324 28.2534 56.1413 28.0983 56.2957 27.9894C56.4515 27.8789 56.6293 27.8237 56.829 27.8237C56.8744 27.8237 56.9251 27.826 56.981 27.8305C57.0385 27.8335 57.0862 27.8388 57.124 27.8464V28.6021C57.0892 28.59 57.034 28.5795 56.9584 28.5704C56.8842 28.5598 56.8123 28.5545 56.7427 28.5545C56.593 28.5545 56.4583 28.587 56.3388 28.6521C56.2208 28.7156 56.1277 28.8041 56.0596 28.9176C55.9915 29.0311 55.9575 29.162 55.9575 29.3102V31.3596H55.1359ZM58.6106 31.43C58.3897 31.43 58.1907 31.3906 58.0137 31.312C57.8382 31.2318 57.699 31.1138 57.5961 30.9579C57.4947 30.8021 57.444 30.6099 57.444 30.3815C57.444 30.1848 57.4803 30.0221 57.553 29.8935C57.6256 29.7649 57.7247 29.662 57.8503 29.5849C57.9759 29.5077 58.1173 29.4494 58.2747 29.4101C58.4335 29.3692 58.5977 29.3397 58.7672 29.3216C58.9714 29.3004 59.1371 29.2815 59.2642 29.2648C59.3913 29.2467 59.4836 29.2195 59.5411 29.1831C59.6001 29.1453 59.6296 29.0871 59.6296 29.0084V28.9948C59.6296 28.8238 59.5789 28.6914 59.4775 28.5976C59.3762 28.5038 59.2301 28.4569 59.0395 28.4569C58.8383 28.4569 58.6787 28.5008 58.5606 28.5885C58.4441 28.6763 58.3655 28.7799 58.3246 28.8995L57.5575 28.7905C57.618 28.5787 57.7179 28.4017 57.8571 28.2595C57.9963 28.1157 58.1665 28.0083 58.3677 27.9372C58.569 27.8646 58.7914 27.8282 59.035 27.8282C59.2029 27.8282 59.3701 27.8479 59.5365 27.8872C59.703 27.9266 59.855 27.9916 59.9927 28.0824C60.1304 28.1717 60.2408 28.2935 60.3241 28.4478C60.4088 28.6021 60.4511 28.7951 60.4511 29.0265V31.3596H59.6614V30.8807H59.6341C59.5842 30.9776 59.5138 31.0684 59.4231 31.1531C59.3338 31.2363 59.2211 31.3036 59.0849 31.3551C58.9502 31.405 58.7921 31.43 58.6106 31.43ZM58.8239 30.8263C58.9888 30.8263 59.1318 30.7938 59.2528 30.7287C59.3739 30.6621 59.4669 30.5744 59.532 30.4654C59.5986 30.3565 59.6319 30.2377 59.6319 30.1091V29.6983C59.6061 29.7195 59.5623 29.7392 59.5002 29.7573C59.4397 29.7755 59.3716 29.7914 59.296 29.805C59.2203 29.8186 59.1454 29.8307 59.0713 29.8413C58.9971 29.8519 58.9328 29.861 58.8784 29.8685C58.7558 29.8852 58.6461 29.9124 58.5493 29.9502C58.4525 29.9881 58.376 30.041 58.3201 30.1091C58.2641 30.1757 58.2361 30.2619 58.2361 30.3678C58.2361 30.5191 58.2913 30.6334 58.4018 30.7105C58.5122 30.7877 58.6529 30.8263 58.8239 30.8263ZM62.0988 29.317V31.3596H61.2773V26.7116H62.0807V28.466H62.1215C62.2032 28.2693 62.3296 28.1142 62.5005 28.0007C62.673 27.8857 62.8924 27.8282 63.1587 27.8282C63.4008 27.8282 63.6118 27.8789 63.7919 27.9803C63.9719 28.0817 64.1111 28.2299 64.2095 28.4251C64.3093 28.6203 64.3593 28.8586 64.3593 29.14V31.3596H63.5377V29.2671C63.5377 29.0326 63.4772 28.8503 63.3561 28.7202C63.2366 28.5885 63.0687 28.5227 62.8523 28.5227C62.7071 28.5227 62.5769 28.5545 62.4619 28.618C62.3485 28.6801 62.2592 28.7701 62.1941 28.8881C62.1306 29.0061 62.0988 29.1491 62.0988 29.317ZM66.1998 31.43C65.9789 31.43 65.78 31.3906 65.603 31.312C65.4275 31.2318 65.2883 31.1138 65.1854 30.9579C65.084 30.8021 65.0333 30.6099 65.0333 30.3815C65.0333 30.1848 65.0696 30.0221 65.1423 29.8935C65.2149 29.7649 65.314 29.662 65.4396 29.5849C65.5651 29.5077 65.7066 29.4494 65.864 29.4101C66.0228 29.3692 66.187 29.3397 66.3564 29.3216C66.5607 29.3004 66.7264 29.2815 66.8535 29.2648C66.9806 29.2467 67.0729 29.2195 67.1304 29.1831C67.1894 29.1453 67.2189 29.0871 67.2189 29.0084V28.9948C67.2189 28.8238 67.1682 28.6914 67.0668 28.5976C66.9654 28.5038 66.8194 28.4569 66.6288 28.4569C66.4276 28.4569 66.2679 28.5008 66.1499 28.5885C66.0334 28.6763 65.9547 28.7799 65.9139 28.8995L65.1468 28.7905C65.2073 28.5787 65.3072 28.4017 65.4464 28.2595C65.5856 28.1157 65.7558 28.0083 65.957 27.9372C66.1582 27.8646 66.3807 27.8282 66.6243 27.8282C66.7922 27.8282 66.9594 27.8479 67.1258 27.8872C67.2922 27.9266 67.4443 27.9916 67.582 28.0824C67.7197 28.1717 67.8301 28.2935 67.9133 28.4478C67.9981 28.6021 68.0404 28.7951 68.0404 29.0265V31.3596H67.2506V30.8807H67.2234C67.1735 30.9776 67.1031 31.0684 67.0123 31.1531C66.9231 31.2363 66.8104 31.3036 66.6742 31.3551C66.5395 31.405 66.3814 31.43 66.1998 31.43ZM66.4132 30.8263C66.5781 30.8263 66.7211 30.7938 66.8421 30.7287C66.9632 30.6621 67.0562 30.5744 67.1213 30.4654C67.1878 30.3565 67.2211 30.2377 67.2211 30.1091V29.6983C67.1954 29.7195 67.1515 29.7392 67.0895 29.7573C67.029 29.7755 66.9609 29.7914 66.8852 29.805C66.8096 29.8186 66.7347 29.8307 66.6606 29.8413C66.5864 29.8519 66.5221 29.861 66.4677 29.8685C66.3451 29.8852 66.2354 29.9124 66.1386 29.9502C66.0417 29.9881 65.9653 30.041 65.9094 30.1091C65.8534 30.1757 65.8254 30.2619 65.8254 30.3678C65.8254 30.5191 65.8806 30.6334 65.9911 30.7105C66.1015 30.7877 66.2422 30.8263 66.4132 30.8263ZM69.6881 29.317V31.3596H68.8665V27.8736H69.6518V28.466H69.6926C69.7728 28.2708 69.9007 28.1157 70.0762 28.0007C70.2532 27.8857 70.4718 27.8282 70.7321 27.8282C70.9727 27.8282 71.1822 27.8797 71.3607 27.9826C71.5408 28.0855 71.68 28.2345 71.7783 28.4297C71.8782 28.6248 71.9274 28.8616 71.9259 29.14V31.3596H71.1043V29.2671C71.1043 29.0341 71.0438 28.8518 70.9227 28.7202C70.8032 28.5885 70.6375 28.5227 70.4257 28.5227C70.282 28.5227 70.1541 28.5545 70.0422 28.618C69.9317 28.6801 69.8447 28.7701 69.7812 28.8881C69.7191 29.0061 69.6881 29.1491 69.6881 29.317ZM75.8669 31.4277C75.5265 31.4277 75.2314 31.3528 74.9818 31.203C74.7321 31.0532 74.5385 30.8437 74.4008 30.5744C74.2646 30.305 74.1965 29.9903 74.1965 29.6302C74.1965 29.2701 74.2646 28.9547 74.4008 28.6839C74.5385 28.413 74.7321 28.2027 74.9818 28.0529C75.2314 27.9031 75.5265 27.8282 75.8669 27.8282C76.2073 27.8282 76.5023 27.9031 76.752 28.0529C77.0016 28.2027 77.1946 28.413 77.3307 28.6839C77.4684 28.9547 77.5373 29.2701 77.5373 29.6302C77.5373 29.9903 77.4684 30.305 77.3307 30.5744C77.1946 30.8437 77.0016 31.0532 76.752 31.203C76.5023 31.3528 76.2073 31.4277 75.8669 31.4277ZM75.8714 30.7695C76.056 30.7695 76.2103 30.7189 76.3344 30.6175C76.4585 30.5146 76.5508 30.3769 76.6113 30.2044C76.6733 30.0319 76.7043 29.8398 76.7043 29.628C76.7043 29.4146 76.6733 29.2217 76.6113 29.0492C76.5508 28.8752 76.4585 28.7368 76.3344 28.6339C76.2103 28.531 76.056 28.4796 75.8714 28.4796C75.6823 28.4796 75.5249 28.531 75.3994 28.6339C75.2753 28.7368 75.1822 28.8752 75.1202 29.0492C75.0597 29.2217 75.0294 29.4146 75.0294 29.628C75.0294 29.8398 75.0597 30.0319 75.1202 30.2044C75.1822 30.3769 75.2753 30.5146 75.3994 30.6175C75.5249 30.7189 75.6823 30.7695 75.8714 30.7695ZM79.0561 29.317V31.3596H78.2346V27.8736H79.0198V28.466H79.0607C79.1409 28.2708 79.2687 28.1157 79.4442 28.0007C79.6212 27.8857 79.8399 27.8282 80.1001 27.8282C80.3407 27.8282 80.5502 27.8797 80.7288 27.9826C80.9088 28.0855 81.048 28.2345 81.1464 28.4297C81.2462 28.6248 81.2954 28.8616 81.2939 29.14V31.3596H80.4723V29.2671C80.4723 29.0341 80.4118 28.8518 80.2908 28.7202C80.1712 28.5885 80.0055 28.5227 79.7937 28.5227C79.65 28.5227 79.5221 28.5545 79.4102 28.618C79.2997 28.6801 79.2127 28.7701 79.1492 28.8881C79.0871 29.0061 79.0561 29.1491 79.0561 29.317ZM83.7143 31.3596V27.8736H84.4996V28.466H84.5404C84.6131 28.2663 84.7333 28.1104 84.9013 27.9985C85.0692 27.885 85.2697 27.8282 85.5027 27.8282C85.7387 27.8282 85.9377 27.8857 86.0996 28.0007C86.263 28.1142 86.378 28.2693 86.4446 28.466H86.4809C86.558 28.2723 86.6882 28.118 86.8712 28.003C87.0558 27.8865 87.2745 27.8282 87.5271 27.8282C87.8479 27.8282 88.1096 27.9296 88.3124 28.1324C88.5151 28.3351 88.6165 28.6309 88.6165 29.0197V31.3596H87.7927V29.1468C87.7927 28.9305 87.7352 28.7724 87.6202 28.6725C87.5052 28.5711 87.3645 28.5204 87.198 28.5204C86.9998 28.5204 86.8448 28.5825 86.7328 28.7065C86.6223 28.8291 86.5671 28.9887 86.5671 29.1854V31.3596H85.7614V29.1128C85.7614 28.9327 85.707 28.789 85.598 28.6816C85.4906 28.5742 85.3499 28.5204 85.1759 28.5204C85.0579 28.5204 84.9505 28.5507 84.8536 28.6112C84.7568 28.6702 84.6796 28.7542 84.6221 28.8631C84.5646 28.9706 84.5359 29.0961 84.5359 29.2399V31.3596H83.7143ZM90.9706 31.4277C90.6301 31.4277 90.3351 31.3528 90.0854 31.203C89.8358 31.0532 89.6421 30.8437 89.5044 30.5744C89.3683 30.305 89.3002 29.9903 89.3002 29.6302C89.3002 29.2701 89.3683 28.9547 89.5044 28.6839C89.6421 28.413 89.8358 28.2027 90.0854 28.0529C90.3351 27.9031 90.6301 27.8282 90.9706 27.8282C91.311 27.8282 91.606 27.9031 91.8557 28.0529C92.1053 28.2027 92.2982 28.413 92.4344 28.6839C92.5721 28.9547 92.6409 29.2701 92.6409 29.6302C92.6409 29.9903 92.5721 30.305 92.4344 30.5744C92.2982 30.8437 92.1053 31.0532 91.8557 31.203C91.606 31.3528 91.311 31.4277 90.9706 31.4277ZM90.9751 30.7695C91.1597 30.7695 91.314 30.7189 91.4381 30.6175C91.5621 30.5146 91.6544 30.3769 91.715 30.2044C91.777 30.0319 91.808 29.8398 91.808 29.628C91.808 29.4146 91.777 29.2217 91.715 29.0492C91.6544 28.8752 91.5621 28.7368 91.4381 28.6339C91.314 28.531 91.1597 28.4796 90.9751 28.4796C90.786 28.4796 90.6286 28.531 90.503 28.6339C90.379 28.7368 90.2859 28.8752 90.2239 29.0492C90.1634 29.2217 90.1331 29.4146 90.1331 29.628C90.1331 29.8398 90.1634 30.0319 90.2239 30.2044C90.2859 30.3769 90.379 30.5146 90.503 30.6175C90.6286 30.7189 90.786 30.7695 90.9751 30.7695ZM93.3746 31.3596V26.7116H94.1961V28.4501H94.2302C94.2725 28.3654 94.3323 28.2753 94.4095 28.18C94.4866 28.0832 94.591 28.0007 94.7226 27.9326C94.8543 27.863 95.0222 27.8282 95.2265 27.8282C95.4958 27.8282 95.7386 27.8971 95.955 28.0348C96.1729 28.1709 96.3454 28.3729 96.4724 28.6407C96.6011 28.907 96.6654 29.2338 96.6654 29.6212C96.6654 30.004 96.6026 30.3293 96.477 30.5971C96.3514 30.8649 96.1804 31.0691 95.9641 31.2098C95.7477 31.3505 95.5026 31.4209 95.2288 31.4209C95.029 31.4209 94.8634 31.3876 94.7317 31.321C94.6001 31.2545 94.4942 31.1743 94.414 31.0805C94.3353 30.9851 94.274 30.8951 94.2302 30.8104H94.1825V31.3596H93.3746ZM94.1802 29.6166C94.1802 29.8421 94.212 30.0395 94.2756 30.209C94.3406 30.3784 94.4337 30.5108 94.5547 30.6061C94.6773 30.6999 94.8255 30.7468 94.9995 30.7468C95.1811 30.7468 95.3331 30.6984 95.4557 30.6016C95.5783 30.5033 95.6706 30.3694 95.7326 30.1999C95.7961 30.0289 95.8279 29.8345 95.8279 29.6166C95.8279 29.4003 95.7969 29.2081 95.7349 29.0402C95.6728 28.8722 95.5805 28.7406 95.458 28.6453C95.3354 28.5499 95.1826 28.5023 94.9995 28.5023C94.824 28.5023 94.675 28.5484 94.5524 28.6407C94.4299 28.733 94.3368 28.8624 94.2733 29.0288C94.2112 29.1953 94.1802 29.3912 94.1802 29.6166ZM97.3638 31.3596V27.8736H98.1854V31.3596H97.3638ZM97.7769 27.3789C97.6467 27.3789 97.5348 27.3358 97.441 27.2495C97.3472 27.1618 97.3003 27.0566 97.3003 26.934C97.3003 26.81 97.3472 26.7048 97.441 26.6186C97.5348 26.5308 97.6467 26.487 97.7769 26.487C97.9085 26.487 98.0205 26.5308 98.1127 26.6186C98.2066 26.7048 98.2535 26.81 98.2535 26.934C98.2535 27.0566 98.2066 27.1618 98.1127 27.2495C98.0205 27.3358 97.9085 27.3789 97.7769 27.3789ZM99.8518 26.7116V31.3596H99.0302V26.7116H99.8518ZM102.24 31.4277C101.89 31.4277 101.589 31.3551 101.334 31.2098C101.082 31.0631 100.887 30.8558 100.751 30.588C100.615 30.3187 100.547 30.0017 100.547 29.6371C100.547 29.2785 100.615 28.9638 100.751 28.6929C100.889 28.4206 101.081 28.2088 101.328 28.0575C101.574 27.9046 101.864 27.8282 102.197 27.8282C102.412 27.8282 102.614 27.863 102.805 27.9326C102.997 28.0007 103.167 28.1066 103.313 28.2504C103.462 28.3941 103.578 28.5772 103.663 28.7996C103.748 29.0205 103.79 29.2838 103.79 29.5894V29.8413H100.933V29.2875H103.002C103.001 29.1302 102.967 28.9902 102.9 28.8677C102.834 28.7436 102.741 28.646 102.621 28.5749C102.503 28.5038 102.365 28.4682 102.208 28.4682C102.04 28.4682 101.893 28.5091 101.766 28.5908C101.638 28.671 101.539 28.7769 101.468 28.9085C101.399 29.0387 101.363 29.1816 101.362 29.3375V29.8209C101.362 30.0236 101.399 30.1976 101.473 30.3429C101.547 30.4866 101.651 30.5971 101.784 30.6742C101.917 30.7499 102.073 30.7877 102.251 30.7877C102.371 30.7877 102.479 30.7711 102.576 30.7378C102.673 30.703 102.757 30.6523 102.828 30.5857C102.899 30.5191 102.953 30.4367 102.989 30.3383L103.756 30.4246C103.707 30.6273 103.615 30.8043 103.479 30.9556C103.344 31.1054 103.172 31.2219 102.962 31.3052C102.751 31.3869 102.511 31.4277 102.24 31.4277Z" fill="#288AE2"/>
</svg>
