<svg width="34" height="33" viewBox="0 0 34 33" fill="none" xmlns="http://www.w3.org/2000/svg">
<path d="M33.9737 16.2511C33.9737 24.0331 28.3026 30.5386 20.7299 32.1285C19.785 32.3279 18.8116 32.4502 17.8148 32.487C17.5869 32.4971 17.3574 32.5021 17.1279 32.5021C7.82456 32.5021 0.282043 25.226 0.282043 16.2511C0.282043 7.27612 7.82456 0 17.1279 0C17.3574 0 17.5869 0.00502549 17.8148 0.0150777C18.8116 0.0519358 19.785 0.174237 20.7299 0.373606C28.3026 1.96353 33.9737 8.46898 33.9737 16.2511Z" fill="#5ACB11"/>
<path d="M11.1417 25.3047C13.7386 27.667 16.3354 30.0293 18.9305 32.3915C20.43 32.2257 24.9836 31.5304 28.8738 27.8714C33.8028 23.2323 33.9686 17.3099 33.977 16.1472C31.923 14.1652 29.8673 12.1833 27.8133 10.2013C27.3224 10.4911 26.8316 10.781 26.3407 11.0708C28.3143 14.7147 28.14 19.0271 25.8347 22.1282C22.8559 26.134 16.766 27.5296 11.5857 24.9998C11.5438 24.9998 11.5019 24.9998 11.4584 24.9998C11.3528 25.1003 11.2473 25.2025 11.1417 25.3047Z" fill="url(#paint0_linear_80_52)"/>
<path d="M17.1295 5.4718C10.9792 5.4718 5.97659 10.2985 5.97659 16.231C5.97659 18.342 6.60988 20.3122 7.7039 21.9758L8.44441 21.2605C7.5263 19.7895 6.99689 18.0689 6.99689 16.231C6.99689 10.8414 11.5422 6.45692 17.1295 6.45692C22.7169 6.45692 27.2621 10.8414 27.2621 16.231C27.2621 21.6207 22.7169 26.0051 17.1295 26.0051C15.1978 26.0051 13.3901 25.4807 11.8521 24.571L11.1116 25.2847C12.8489 26.3636 14.9147 26.9885 17.1295 26.9885C23.2798 26.9885 28.2824 22.1618 28.2824 16.2293C28.2824 10.2969 23.2798 5.4718 17.1295 5.4718Z" fill="white"/>
<path d="M27.5402 10.1762L25.8079 11.8482L21.5726 7.76031L23.3049 6.08997L27.5402 10.1762Z" fill="#5ACB11"/>
<path d="M10.1248 23.8221L9.33065 20.411L6.66515 22.78L10.1248 23.8221Z" fill="white"/>
<path d="M24.3386 9.18274L25.1327 12.5938L27.7983 10.2248L24.3386 9.18274Z" fill="white"/>
<path d="M17.3457 11.4462L17.1295 11.5919L12.8322 14.4735L11.9543 15.0616C11.8806 15.1119 11.7952 15.1353 11.7114 15.1353C11.5757 15.1353 11.4433 15.0733 11.3596 14.9594C11.2255 14.7718 11.2724 14.5154 11.4668 14.3864L12.8305 13.4717L16.8581 10.771C16.9318 10.7207 17.0173 10.6973 17.1011 10.6973C17.1094 10.6973 17.1195 10.6973 17.1279 10.6973C17.2535 10.7056 17.3741 10.766 17.4512 10.8732C17.5869 11.0608 17.54 11.3172 17.3457 11.4462Z" fill="white"/>
<path d="M22.8978 14.9594C22.8141 15.075 22.6817 15.1353 22.546 15.1353C22.4622 15.1353 22.3768 15.1119 22.3031 15.0616L21.4252 14.4735L17.1279 11.5919L16.9117 11.4462C16.7174 11.3155 16.6705 11.0591 16.8045 10.8732C16.8816 10.766 17.0039 10.7056 17.1279 10.6973C17.1362 10.6973 17.1463 10.6973 17.1547 10.6973C17.2384 10.6973 17.3239 10.7207 17.3976 10.771L21.4252 13.4717L22.7889 14.3864C22.9849 14.5154 23.0319 14.7718 22.8978 14.9594Z" fill="white"/>
<path d="M21.4252 15.189V19.7158C21.4252 20.0626 21.1337 20.3441 20.7735 20.3441H13.4823C13.1221 20.3441 12.8306 20.0626 12.8306 19.7158V15.189C12.8306 14.9829 12.9344 14.7903 13.1103 14.673L16.8565 12.1616C16.9302 12.1113 17.0156 12.0879 17.1011 12.0879C17.1095 12.0879 17.1195 12.0896 17.1279 12.0896C17.1379 12.0896 17.1463 12.0879 17.1564 12.0879C17.2401 12.0879 17.3256 12.1113 17.401 12.1616L21.1471 14.673C21.3213 14.7903 21.4252 14.9829 21.4252 15.189Z" fill="white"/>
<path d="M18.2185 15.0332H16.0389C16.2667 14.2608 16.6688 13.7482 17.1295 13.7482C17.5902 13.7482 17.9923 14.2608 18.2185 15.0332Z" fill="#5ACB11"/>
<path d="M18.3961 15.8977L15.8613 16.1942C15.873 15.9647 15.8965 15.7435 15.9333 15.5324L18.2822 15.2325C18.3341 15.4403 18.3727 15.6631 18.3961 15.8977Z" fill="#5ACB11"/>
<path d="M15.9602 17.3066L18.2956 17.8545C18.0728 18.667 17.659 19.2115 17.1849 19.2115C16.6119 19.2115 16.126 18.4124 15.9602 17.3066Z" fill="#5ACB11"/>
<path d="M18.4095 16.4807C18.4095 16.7169 18.3961 16.9448 18.3693 17.1642L15.8529 16.8694C15.8512 16.8459 15.8495 16.8225 15.8479 16.799L18.4028 16.1992C18.4078 16.2914 18.4095 16.3852 18.4095 16.4807Z" fill="#5ACB11"/>
<defs>
<linearGradient id="paint0_linear_80_52" x1="19.1403" y1="17.3058" x2="29.2947" y2="27.4601" gradientUnits="userSpaceOnUse">
<stop stop-opacity="0.18"/>
<stop offset="0.3897" stop-color="#010200" stop-opacity="0.1098"/>
<stop offset="0.5301" stop-color="#040901" stop-opacity="0.0846"/>
<stop offset="0.6302" stop-color="#091402" stop-opacity="0.0666"/>
<stop offset="0.7112" stop-color="#112503" stop-opacity="0.052"/>
<stop offset="0.7805" stop-color="#1A3B05" stop-opacity="0.0395"/>
<stop offset="0.8419" stop-color="#265707" stop-opacity="0.0285"/>
<stop offset="0.8974" stop-color="#35770A" stop-opacity="0.0185"/>
<stop offset="0.9484" stop-color="#459D0D" stop-opacity="0.01"/>
<stop offset="0.9939" stop-color="#57C610" stop-opacity="0.01"/>
<stop offset="1" stop-color="#5ACC11" stop-opacity="0"/>
</linearGradient>
</defs>
</svg>
